{
	"patcher" : 	{
		"fileversion" : 1,
		"appversion" : 		{
			"major" : 5,
			"minor" : 1,
			"revision" : 9
		}
,
		"rect" : [ 337.0, 167.0, 641.0, 654.0 ],
		"bgcolor" : [ 1.0, 1.0, 1.0, 0.0 ],
		"bglocked" : 0,
		"defrect" : [ 337.0, 167.0, 641.0, 654.0 ],
		"openrect" : [ 0.0, 0.0, 0.0, 0.0 ],
		"openinpresentation" : 1,
		"default_fontsize" : 12.0,
		"default_fontface" : 0,
		"default_fontname" : "Arial",
		"gridonopen" : 0,
		"gridsize" : [ 10.0, 10.0 ],
		"gridsnaponopen" : 0,
		"toolbarvisible" : 1,
		"boxanimatetime" : 0,
		"imprint" : 0,
		"enablehscroll" : 1,
		"enablevscroll" : 1,
		"devicewidth" : 0.0,
		"boxes" : [ 			{
				"box" : 				{
					"maxclass" : "newobj",
					"varname" : "u416000533",
					"text" : "autopattr @autorestore 0",
					"patching_rect" : [ 331.0, 350.0, 144.0, 20.0 ],
					"outlettype" : [ "", "", "", "" ],
					"id" : "obj-84",
					"fontname" : "Arial",
					"numinlets" : 1,
					"fontsize" : 12.0,
					"numoutlets" : 4,
					"restore" : 					{
						"octave" : [ 0 ],
						"pitch[1]" : [ 0 ],
						"scales" : [ 0 ]
					}

				}

			}
, 			{
				"box" : 				{
					"maxclass" : "outlet",
					"patching_rect" : [ 420.0, 590.0, 25.0, 25.0 ],
					"id" : "obj-21",
					"numinlets" : 1,
					"numoutlets" : 0,
					"comment" : "base-pitch"
				}

			}
, 			{
				"box" : 				{
					"maxclass" : "outlet",
					"patching_rect" : [ 380.0, 590.0, 25.0, 25.0 ],
					"id" : "obj-19",
					"numinlets" : 1,
					"numoutlets" : 0,
					"comment" : "scale-type"
				}

			}
, 			{
				"box" : 				{
					"maxclass" : "inlet",
					"patching_rect" : [ 89.0, 10.0, 25.0, 25.0 ],
					"outlettype" : [ "" ],
					"id" : "obj-13",
					"numinlets" : 0,
					"numoutlets" : 1,
					"comment" : "pitch"
				}

			}
, 			{
				"box" : 				{
					"maxclass" : "inlet",
					"patching_rect" : [ 120.0, 10.0, 25.0, 25.0 ],
					"outlettype" : [ "" ],
					"id" : "obj-11",
					"numinlets" : 0,
					"numoutlets" : 1,
					"comment" : "octave"
				}

			}
, 			{
				"box" : 				{
					"maxclass" : "inlet",
					"patching_rect" : [ 50.0, 60.0, 25.0, 25.0 ],
					"outlettype" : [ "" ],
					"id" : "obj-3",
					"numinlets" : 0,
					"numoutlets" : 1,
					"comment" : "index for scale-type"
				}

			}
, 			{
				"box" : 				{
					"maxclass" : "comment",
					"text" : "(re)generate",
					"frgb" : [ 1.0, 1.0, 1.0, 1.0 ],
					"patching_rect" : [ 205.0, 55.0, 179.0, 20.0 ],
					"presentation" : 1,
					"textcolor" : [ 1.0, 1.0, 1.0, 1.0 ],
					"id" : "obj-1",
					"fontname" : "Arial",
					"numinlets" : 1,
					"presentation_rect" : [ 176.0, 20.0, 80.0, 20.0 ],
					"fontsize" : 12.0,
					"numoutlets" : 0
				}

			}
, 			{
				"box" : 				{
					"maxclass" : "number",
					"varname" : "octave",
					"bordercolor" : [ 0.501961, 0.501961, 0.501961, 0.0 ],
					"bgcolor" : [ 1.0, 1.0, 1.0, 0.0 ],
					"patching_rect" : [ 120.0, 39.0, 50.0, 20.0 ],
					"outlettype" : [ "int", "bang" ],
					"presentation" : 1,
					"textcolor" : [ 1.0, 0.556863, 0.098039, 1.0 ],
					"id" : "obj-16",
					"fontname" : "Arial",
					"htricolor" : [ 1.0, 0.556863, 0.098039, 1.0 ],
					"hbgcolor" : [ 0.0, 0.0, 0.0, 0.0 ],
					"numinlets" : 1,
					"presentation_rect" : [ 130.0, 40.0, 50.0, 20.0 ],
					"fontsize" : 12.0,
					"numoutlets" : 2
				}

			}
, 			{
				"box" : 				{
					"maxclass" : "number",
					"varname" : "pitch[1]",
					"bordercolor" : [ 0.501961, 0.501961, 0.501961, 0.0 ],
					"bgcolor" : [ 1.0, 1.0, 1.0, 0.0 ],
					"patching_rect" : [ 120.0, 130.0, 50.0, 20.0 ],
					"outlettype" : [ "int", "bang" ],
					"presentation" : 1,
					"textcolor" : [ 1.0, 0.556863, 0.098039, 1.0 ],
					"id" : "obj-5",
					"fontname" : "Arial",
					"htricolor" : [ 1.0, 0.556863, 0.098039, 1.0 ],
					"format" : 4,
					"hbgcolor" : [ 0.0, 0.0, 0.0, 0.0 ],
					"numinlets" : 1,
					"presentation_rect" : [ 90.0, 40.0, 50.0, 20.0 ],
					"fontsize" : 12.0,
					"minimum" : 0,
					"numoutlets" : 2
				}

			}
, 			{
				"box" : 				{
					"maxclass" : "umenu",
					"varname" : "scales",
					"items" : [ "ionian", ",", "dorian", ",", "phrygian", ",", "lydian", ",", "mixolydian", ",", "aeolian(moll)", ",", "locrian", ",", "whole", "tone", ",", "dodecaphon.", ",", "overtone", ",", "melminor", ",", "dorianB9", ",", "lydian#5", ",", "mixo#11", ",", "mixoB13", ",", "lokrian9", ",", "altered", ",", "harm.major", ",", "harm.major2", ",", "harm.major3", ",", "harm.major4", ",", "harm.major5", ",", "harm.major6", ",", "harm.major7" ],
					"bgcolor" : [ 0.266667, 0.266667, 0.266667, 1.0 ],
					"bgcolor2" : [ 0.176471, 0.176471, 0.176471, 1.0 ],
					"types" : [  ],
					"patching_rect" : [ 20.0, 160.0, 79.0, 19.0 ],
					"outlettype" : [ "int", "", "" ],
					"presentation" : 1,
					"textcolor2" : [ 1.0, 1.0, 1.0, 1.0 ],
					"rounded" : 1,
					"textcolor" : [ 1.0, 1.0, 1.0, 1.0 ],
					"hltcolor" : [ 0.905882, 0.905882, 0.905882, 1.0 ],
					"id" : "obj-26",
					"fontname" : "Helvetica Neue",
					"framecolor" : [ 0.015686, 0.015686, 0.015686, 1.0 ],
					"numinlets" : 1,
					"fontface" : 1,
					"presentation_rect" : [ 10.0, 40.0, 79.0, 19.0 ],
					"fontsize" : 10.0,
					"togcolor" : [ 1.0, 1.0, 1.0, 1.0 ],
					"discolor" : [ 0.176471, 0.176471, 0.176471, 1.0 ],
					"align" : 1,
					"numoutlets" : 3
				}

			}
, 			{
				"box" : 				{
					"maxclass" : "button",
					"bgcolor" : [ 0.0, 0.0, 0.0, 1.0 ],
					"patching_rect" : [ 10.0, 90.0, 20.0, 20.0 ],
					"outlettype" : [ "bang" ],
					"presentation" : 1,
					"id" : "obj-12",
					"fgcolor" : [ 0.533333, 0.533333, 0.533333, 1.0 ],
					"outlinecolor" : [ 0.32549, 0.290196, 0.290196, 1.0 ],
					"numinlets" : 1,
					"presentation_rect" : [ 180.0, 40.0, 19.0, 19.0 ],
					"blinkcolor" : [ 1.0, 0.0, 0.0, 1.0 ],
					"numoutlets" : 1
				}

			}
, 			{
				"box" : 				{
					"maxclass" : "panel",
					"bgcolor" : [ 0.0, 0.0, 0.0, 0.266667 ],
					"angle" : 90.0,
					"patching_rect" : [ 280.0, 190.0, 160.0, 30.0 ],
					"border" : 1,
					"presentation" : 1,
					"grad1" : [ 0.133333, 0.141176, 0.168627, 1.0 ],
					"id" : "obj-75",
					"grad2" : [ 0.176471, 0.188235, 0.219608, 1.0 ],
					"numinlets" : 1,
					"presentation_rect" : [ 10.0, 40.0, 230.0, 19.0 ],
					"numoutlets" : 0
				}

			}
, 			{
				"box" : 				{
					"maxclass" : "newobj",
					"text" : "prepend size",
					"patching_rect" : [ 78.0, 337.0, 79.0, 20.0 ],
					"outlettype" : [ "" ],
					"id" : "obj-9",
					"fontname" : "Arial",
					"numinlets" : 1,
					"fontsize" : 12.0,
					"numoutlets" : 1
				}

			}
, 			{
				"box" : 				{
					"maxclass" : "newobj",
					"text" : "loadmess 0",
					"patching_rect" : [ 20.0, 130.0, 72.0, 20.0 ],
					"outlettype" : [ "" ],
					"id" : "obj-8",
					"fontname" : "Arial",
					"numinlets" : 1,
					"fontsize" : 12.0,
					"numoutlets" : 1
				}

			}
, 			{
				"box" : 				{
					"maxclass" : "newobj",
					"text" : "i",
					"patching_rect" : [ 20.0, 200.0, 32.5, 20.0 ],
					"outlettype" : [ "int" ],
					"id" : "obj-6",
					"fontname" : "Arial",
					"numinlets" : 2,
					"fontsize" : 12.0,
					"numoutlets" : 1
				}

			}
, 			{
				"box" : 				{
					"maxclass" : "newobj",
					"text" : "p set",
					"patching_rect" : [ 40.0, 310.0, 38.0, 20.0 ],
					"outlettype" : [ "", "", "" ],
					"id" : "obj-114",
					"fontname" : "Arial",
					"numinlets" : 1,
					"fontsize" : 12.0,
					"numoutlets" : 3,
					"patcher" : 					{
						"fileversion" : 1,
						"appversion" : 						{
							"major" : 5,
							"minor" : 1,
							"revision" : 9
						}
,
						"rect" : [ 419.0, 73.0, 640.0, 480.0 ],
						"bglocked" : 0,
						"defrect" : [ 419.0, 73.0, 640.0, 480.0 ],
						"openrect" : [ 0.0, 0.0, 0.0, 0.0 ],
						"openinpresentation" : 0,
						"default_fontsize" : 12.0,
						"default_fontface" : 0,
						"default_fontname" : "Arial",
						"gridonopen" : 0,
						"gridsize" : [ 10.0, 10.0 ],
						"gridsnaponopen" : 0,
						"toolbarvisible" : 1,
						"boxanimatetime" : 0,
						"imprint" : 0,
						"enablehscroll" : 1,
						"enablevscroll" : 1,
						"devicewidth" : 0.0,
						"boxes" : [ 							{
								"box" : 								{
									"maxclass" : "outlet",
									"patching_rect" : [ 343.0, 407.0, 25.0, 25.0 ],
									"id" : "obj-14",
									"numinlets" : 1,
									"numoutlets" : 0,
									"comment" : ""
								}

							}
, 							{
								"box" : 								{
									"maxclass" : "newobj",
									"text" : "prepend setminmax",
									"patching_rect" : [ 330.0, 379.0, 116.0, 20.0 ],
									"outlettype" : [ "" ],
									"id" : "obj-13",
									"fontname" : "Arial",
									"numinlets" : 1,
									"fontsize" : 12.0,
									"numoutlets" : 1
								}

							}
, 							{
								"box" : 								{
									"maxclass" : "newobj",
									"text" : "pack 0 0",
									"patching_rect" : [ 333.0, 342.0, 56.0, 20.0 ],
									"outlettype" : [ "" ],
									"id" : "obj-12",
									"fontname" : "Arial",
									"numinlets" : 2,
									"fontsize" : 12.0,
									"numoutlets" : 1
								}

							}
, 							{
								"box" : 								{
									"maxclass" : "newobj",
									"text" : "zl slice 1",
									"patching_rect" : [ 315.0, 291.0, 57.0, 20.0 ],
									"outlettype" : [ "", "" ],
									"id" : "obj-11",
									"fontname" : "Arial",
									"numinlets" : 2,
									"fontsize" : 12.0,
									"numoutlets" : 2
								}

							}
, 							{
								"box" : 								{
									"maxclass" : "newobj",
									"text" : "zl slice 1",
									"patching_rect" : [ 416.0, 310.0, 57.0, 20.0 ],
									"outlettype" : [ "", "" ],
									"id" : "obj-10",
									"fontname" : "Arial",
									"numinlets" : 2,
									"fontsize" : 12.0,
									"numoutlets" : 2
								}

							}
, 							{
								"box" : 								{
									"maxclass" : "newobj",
									"text" : "zl sort -1",
									"patching_rect" : [ 390.0, 180.0, 57.0, 20.0 ],
									"outlettype" : [ "", "" ],
									"id" : "obj-8",
									"fontname" : "Arial",
									"numinlets" : 2,
									"fontsize" : 12.0,
									"numoutlets" : 2
								}

							}
, 							{
								"box" : 								{
									"maxclass" : "newobj",
									"text" : "zl sort",
									"patching_rect" : [ 330.0, 177.0, 43.0, 20.0 ],
									"outlettype" : [ "", "" ],
									"id" : "obj-3",
									"fontname" : "Arial",
									"numinlets" : 2,
									"fontsize" : 12.0,
									"numoutlets" : 2
								}

							}
, 							{
								"box" : 								{
									"maxclass" : "outlet",
									"patching_rect" : [ 220.0, 240.0, 25.0, 25.0 ],
									"id" : "obj-2",
									"numinlets" : 1,
									"numoutlets" : 0,
									"comment" : ""
								}

							}
, 							{
								"box" : 								{
									"maxclass" : "newobj",
									"text" : "zl len",
									"patching_rect" : [ 174.0, 126.0, 39.0, 20.0 ],
									"outlettype" : [ "", "" ],
									"id" : "obj-1",
									"fontname" : "Arial",
									"numinlets" : 2,
									"fontsize" : 12.0,
									"numoutlets" : 2
								}

							}
, 							{
								"box" : 								{
									"maxclass" : "newobj",
									"text" : "zl join",
									"patching_rect" : [ 50.0, 220.0, 42.0, 20.0 ],
									"outlettype" : [ "", "" ],
									"id" : "obj-111",
									"fontname" : "Arial",
									"numinlets" : 2,
									"fontsize" : 12.0,
									"numoutlets" : 2
								}

							}
, 							{
								"box" : 								{
									"maxclass" : "newobj",
									"text" : "t b f",
									"patching_rect" : [ 50.0, 160.0, 40.0, 20.0 ],
									"outlettype" : [ "bang", "float" ],
									"id" : "obj-110",
									"fontname" : "Arial",
									"numinlets" : 1,
									"fontsize" : 12.0,
									"numoutlets" : 2
								}

							}
, 							{
								"box" : 								{
									"maxclass" : "newobj",
									"text" : "iter",
									"patching_rect" : [ 50.0, 130.0, 28.0, 20.0 ],
									"outlettype" : [ "" ],
									"id" : "obj-109",
									"fontname" : "Arial",
									"numinlets" : 1,
									"fontsize" : 12.0,
									"numoutlets" : 1
								}

							}
, 							{
								"box" : 								{
									"maxclass" : "newobj",
									"text" : "t l b l l",
									"patching_rect" : [ 50.0, 100.0, 59.5, 20.0 ],
									"outlettype" : [ "", "bang", "", "" ],
									"id" : "obj-108",
									"fontname" : "Arial",
									"numinlets" : 1,
									"fontsize" : 12.0,
									"numoutlets" : 4
								}

							}
, 							{
								"box" : 								{
									"maxclass" : "newobj",
									"text" : "counter 1 20",
									"patching_rect" : [ 50.0, 190.0, 93.0, 20.0 ],
									"outlettype" : [ "int", "", "", "int" ],
									"id" : "obj-107",
									"fontname" : "Arial",
									"numinlets" : 5,
									"fontsize" : 12.0,
									"numoutlets" : 4
								}

							}
, 							{
								"box" : 								{
									"maxclass" : "newobj",
									"text" : "prepend set",
									"patching_rect" : [ 50.0, 250.0, 75.0, 20.0 ],
									"outlettype" : [ "" ],
									"id" : "obj-102",
									"fontname" : "Arial",
									"numinlets" : 1,
									"fontsize" : 12.0,
									"numoutlets" : 1
								}

							}
, 							{
								"box" : 								{
									"maxclass" : "inlet",
									"patching_rect" : [ 50.0, 40.0, 25.0, 25.0 ],
									"outlettype" : [ "" ],
									"id" : "obj-112",
									"numinlets" : 0,
									"numoutlets" : 1,
									"comment" : ""
								}

							}
, 							{
								"box" : 								{
									"maxclass" : "outlet",
									"patching_rect" : [ 50.0, 327.0, 25.0, 25.0 ],
									"id" : "obj-113",
									"numinlets" : 1,
									"numoutlets" : 0,
									"comment" : ""
								}

							}
 ],
						"lines" : [ 							{
								"patchline" : 								{
									"source" : [ "obj-102", 0 ],
									"destination" : [ "obj-113", 0 ],
									"hidden" : 0,
									"midpoints" : [  ]
								}

							}
, 							{
								"patchline" : 								{
									"source" : [ "obj-111", 0 ],
									"destination" : [ "obj-102", 0 ],
									"hidden" : 0,
									"midpoints" : [  ]
								}

							}
, 							{
								"patchline" : 								{
									"source" : [ "obj-107", 0 ],
									"destination" : [ "obj-111", 0 ],
									"hidden" : 0,
									"midpoints" : [  ]
								}

							}
, 							{
								"patchline" : 								{
									"source" : [ "obj-110", 0 ],
									"destination" : [ "obj-107", 0 ],
									"hidden" : 0,
									"midpoints" : [  ]
								}

							}
, 							{
								"patchline" : 								{
									"source" : [ "obj-110", 1 ],
									"destination" : [ "obj-111", 1 ],
									"hidden" : 0,
									"midpoints" : [  ]
								}

							}
, 							{
								"patchline" : 								{
									"source" : [ "obj-109", 0 ],
									"destination" : [ "obj-110", 0 ],
									"hidden" : 0,
									"midpoints" : [  ]
								}

							}
, 							{
								"patchline" : 								{
									"source" : [ "obj-1", 0 ],
									"destination" : [ "obj-107", 4 ],
									"hidden" : 0,
									"midpoints" : [  ]
								}

							}
, 							{
								"patchline" : 								{
									"source" : [ "obj-1", 0 ],
									"destination" : [ "obj-2", 0 ],
									"hidden" : 0,
									"midpoints" : [  ]
								}

							}
, 							{
								"patchline" : 								{
									"source" : [ "obj-12", 0 ],
									"destination" : [ "obj-13", 0 ],
									"hidden" : 0,
									"midpoints" : [  ]
								}

							}
, 							{
								"patchline" : 								{
									"source" : [ "obj-108", 1 ],
									"destination" : [ "obj-107", 2 ],
									"hidden" : 0,
									"midpoints" : [  ]
								}

							}
, 							{
								"patchline" : 								{
									"source" : [ "obj-108", 0 ],
									"destination" : [ "obj-109", 0 ],
									"hidden" : 0,
									"midpoints" : [  ]
								}

							}
, 							{
								"patchline" : 								{
									"source" : [ "obj-112", 0 ],
									"destination" : [ "obj-108", 0 ],
									"hidden" : 0,
									"midpoints" : [  ]
								}

							}
, 							{
								"patchline" : 								{
									"source" : [ "obj-108", 2 ],
									"destination" : [ "obj-1", 0 ],
									"hidden" : 0,
									"midpoints" : [  ]
								}

							}
, 							{
								"patchline" : 								{
									"source" : [ "obj-108", 3 ],
									"destination" : [ "obj-3", 0 ],
									"hidden" : 0,
									"midpoints" : [  ]
								}

							}
, 							{
								"patchline" : 								{
									"source" : [ "obj-108", 3 ],
									"destination" : [ "obj-8", 0 ],
									"hidden" : 0,
									"midpoints" : [  ]
								}

							}
, 							{
								"patchline" : 								{
									"source" : [ "obj-13", 0 ],
									"destination" : [ "obj-14", 0 ],
									"hidden" : 0,
									"midpoints" : [  ]
								}

							}
, 							{
								"patchline" : 								{
									"source" : [ "obj-10", 0 ],
									"destination" : [ "obj-12", 1 ],
									"hidden" : 0,
									"midpoints" : [  ]
								}

							}
, 							{
								"patchline" : 								{
									"source" : [ "obj-8", 0 ],
									"destination" : [ "obj-10", 0 ],
									"hidden" : 0,
									"midpoints" : [  ]
								}

							}
, 							{
								"patchline" : 								{
									"source" : [ "obj-11", 0 ],
									"destination" : [ "obj-12", 0 ],
									"hidden" : 0,
									"midpoints" : [  ]
								}

							}
, 							{
								"patchline" : 								{
									"source" : [ "obj-3", 0 ],
									"destination" : [ "obj-11", 0 ],
									"hidden" : 0,
									"midpoints" : [  ]
								}

							}
 ]
					}
,
					"saved_object_attributes" : 					{
						"default_fontname" : "Arial",
						"default_fontsize" : 12.0,
						"fontname" : "Arial",
						"globalpatchername" : "",
						"fontface" : 0,
						"default_fontface" : 0,
						"fontsize" : 12.0
					}

				}

			}
, 			{
				"box" : 				{
					"maxclass" : "newobj",
					"text" : "t l",
					"patching_rect" : [ 20.0, 470.0, 22.0, 20.0 ],
					"outlettype" : [ "" ],
					"id" : "obj-101",
					"fontname" : "Arial",
					"numinlets" : 1,
					"fontsize" : 12.0,
					"numoutlets" : 1
				}

			}
, 			{
				"box" : 				{
					"maxclass" : "newobj",
					"text" : "zl reg",
					"patching_rect" : [ 20.0, 280.0, 56.0, 20.0 ],
					"outlettype" : [ "", "" ],
					"id" : "obj-100",
					"fontname" : "Arial",
					"numinlets" : 2,
					"fontsize" : 12.0,
					"numoutlets" : 2
				}

			}
, 			{
				"box" : 				{
					"maxclass" : "newobj",
					"text" : "loadmess 0",
					"patching_rect" : [ 190.0, 400.0, 73.0, 20.0 ],
					"outlettype" : [ "" ],
					"id" : "obj-99",
					"fontname" : "Arial",
					"numinlets" : 1,
					"fontsize" : 12.0,
					"numoutlets" : 1
				}

			}
, 			{
				"box" : 				{
					"maxclass" : "newobj",
					"varname" : "u574000535",
					"text" : "autopattr @autorestore 0",
					"patching_rect" : [ 420.0, 50.0, 144.0, 20.0 ],
					"outlettype" : [ "", "", "", "" ],
					"id" : "obj-7",
					"fontname" : "Arial",
					"numinlets" : 1,
					"fontsize" : 12.0,
					"numoutlets" : 4
				}

			}
, 			{
				"box" : 				{
					"maxclass" : "outlet",
					"patching_rect" : [ 80.0, 610.0, 25.0, 25.0 ],
					"id" : "obj-57",
					"numinlets" : 1,
					"numoutlets" : 0,
					"comment" : "scale list in ms"
				}

			}
, 			{
				"box" : 				{
					"maxclass" : "newobj",
					"text" : "vexpr $f1 * 1000. @scalarmode 1",
					"patching_rect" : [ 80.0, 580.0, 190.0, 20.0 ],
					"outlettype" : [ "" ],
					"id" : "obj-56",
					"fontname" : "Arial",
					"numinlets" : 1,
					"fontsize" : 12.0,
					"numoutlets" : 1
				}

			}
, 			{
				"box" : 				{
					"maxclass" : "newobj",
					"text" : "vexpr 1. / $f1 @scalarmode 1",
					"patching_rect" : [ 80.0, 550.0, 168.0, 20.0 ],
					"outlettype" : [ "" ],
					"id" : "obj-54",
					"fontname" : "Arial",
					"numinlets" : 1,
					"fontsize" : 12.0,
					"numoutlets" : 1
				}

			}
, 			{
				"box" : 				{
					"maxclass" : "outlet",
					"patching_rect" : [ 50.0, 610.0, 25.0, 25.0 ],
					"id" : "obj-51",
					"numinlets" : 1,
					"numoutlets" : 0,
					"comment" : "scale as hertz-list"
				}

			}
, 			{
				"box" : 				{
					"maxclass" : "newobj",
					"text" : "p miditohertz",
					"patching_rect" : [ 50.0, 510.0, 80.0, 20.0 ],
					"outlettype" : [ "" ],
					"id" : "obj-71",
					"fontname" : "Arial",
					"numinlets" : 1,
					"fontsize" : 12.0,
					"numoutlets" : 1,
					"patcher" : 					{
						"fileversion" : 1,
						"appversion" : 						{
							"major" : 5,
							"minor" : 1,
							"revision" : 9
						}
,
						"rect" : [ 25.0, 69.0, 640.0, 480.0 ],
						"bglocked" : 0,
						"defrect" : [ 25.0, 69.0, 640.0, 480.0 ],
						"openrect" : [ 0.0, 0.0, 0.0, 0.0 ],
						"openinpresentation" : 0,
						"default_fontsize" : 10.0,
						"default_fontface" : 0,
						"default_fontname" : "Arial",
						"gridonopen" : 0,
						"gridsize" : [ 10.0, 10.0 ],
						"gridsnaponopen" : 0,
						"toolbarvisible" : 1,
						"boxanimatetime" : 200,
						"imprint" : 0,
						"enablehscroll" : 1,
						"enablevscroll" : 1,
						"devicewidth" : 0.0,
						"boxes" : [ 							{
								"box" : 								{
									"maxclass" : "newobj",
									"text" : "pack f f f f f f f f f f f f",
									"patching_rect" : [ 50.0, 160.0, 348.5, 17.0 ],
									"outlettype" : [ "" ],
									"id" : "obj-66",
									"fontname" : "Arial",
									"numinlets" : 12,
									"fontsize" : 9.0,
									"numoutlets" : 1
								}

							}
, 							{
								"box" : 								{
									"maxclass" : "newobj",
									"text" : "unpack f f f f f f f f f f f f",
									"patching_rect" : [ 50.0, 100.0, 348.5, 17.0 ],
									"outlettype" : [ "float", "float", "float", "float", "float", "float", "float", "float", "float", "float", "float", "float" ],
									"id" : "obj-65",
									"fontname" : "Arial",
									"numinlets" : 1,
									"fontsize" : 9.0,
									"numoutlets" : 12
								}

							}
, 							{
								"box" : 								{
									"maxclass" : "newobj",
									"text" : "mtof",
									"patching_rect" : [ 380.0, 130.0, 28.0, 17.0 ],
									"outlettype" : [ "" ],
									"id" : "obj-60",
									"fontname" : "Arial",
									"numinlets" : 1,
									"fontsize" : 9.0,
									"numoutlets" : 1
								}

							}
, 							{
								"box" : 								{
									"maxclass" : "newobj",
									"text" : "mtof",
									"patching_rect" : [ 350.0, 130.0, 28.0, 17.0 ],
									"outlettype" : [ "" ],
									"id" : "obj-61",
									"fontname" : "Arial",
									"numinlets" : 1,
									"fontsize" : 9.0,
									"numoutlets" : 1
								}

							}
, 							{
								"box" : 								{
									"maxclass" : "newobj",
									"text" : "mtof",
									"patching_rect" : [ 320.0, 130.0, 28.0, 17.0 ],
									"outlettype" : [ "" ],
									"id" : "obj-62",
									"fontname" : "Arial",
									"numinlets" : 1,
									"fontsize" : 9.0,
									"numoutlets" : 1
								}

							}
, 							{
								"box" : 								{
									"maxclass" : "newobj",
									"text" : "mtof",
									"patching_rect" : [ 290.0, 130.0, 28.0, 17.0 ],
									"outlettype" : [ "" ],
									"id" : "obj-63",
									"fontname" : "Arial",
									"numinlets" : 1,
									"fontsize" : 9.0,
									"numoutlets" : 1
								}

							}
, 							{
								"box" : 								{
									"maxclass" : "newobj",
									"text" : "mtof",
									"patching_rect" : [ 260.0, 130.0, 28.0, 17.0 ],
									"outlettype" : [ "" ],
									"id" : "obj-56",
									"fontname" : "Arial",
									"numinlets" : 1,
									"fontsize" : 9.0,
									"numoutlets" : 1
								}

							}
, 							{
								"box" : 								{
									"maxclass" : "newobj",
									"text" : "mtof",
									"patching_rect" : [ 230.0, 130.0, 28.0, 17.0 ],
									"outlettype" : [ "" ],
									"id" : "obj-57",
									"fontname" : "Arial",
									"numinlets" : 1,
									"fontsize" : 9.0,
									"numoutlets" : 1
								}

							}
, 							{
								"box" : 								{
									"maxclass" : "newobj",
									"text" : "mtof",
									"patching_rect" : [ 200.0, 130.0, 28.0, 17.0 ],
									"outlettype" : [ "" ],
									"id" : "obj-58",
									"fontname" : "Arial",
									"numinlets" : 1,
									"fontsize" : 9.0,
									"numoutlets" : 1
								}

							}
, 							{
								"box" : 								{
									"maxclass" : "newobj",
									"text" : "mtof",
									"patching_rect" : [ 170.0, 130.0, 28.0, 17.0 ],
									"outlettype" : [ "" ],
									"id" : "obj-59",
									"fontname" : "Arial",
									"numinlets" : 1,
									"fontsize" : 9.0,
									"numoutlets" : 1
								}

							}
, 							{
								"box" : 								{
									"maxclass" : "newobj",
									"text" : "mtof",
									"patching_rect" : [ 140.0, 130.0, 28.0, 17.0 ],
									"outlettype" : [ "" ],
									"id" : "obj-54",
									"fontname" : "Arial",
									"numinlets" : 1,
									"fontsize" : 9.0,
									"numoutlets" : 1
								}

							}
, 							{
								"box" : 								{
									"maxclass" : "newobj",
									"text" : "mtof",
									"patching_rect" : [ 110.0, 130.0, 28.0, 17.0 ],
									"outlettype" : [ "" ],
									"id" : "obj-55",
									"fontname" : "Arial",
									"numinlets" : 1,
									"fontsize" : 9.0,
									"numoutlets" : 1
								}

							}
, 							{
								"box" : 								{
									"maxclass" : "newobj",
									"text" : "mtof",
									"patching_rect" : [ 80.0, 130.0, 28.0, 17.0 ],
									"outlettype" : [ "" ],
									"id" : "obj-53",
									"fontname" : "Arial",
									"numinlets" : 1,
									"fontsize" : 9.0,
									"numoutlets" : 1
								}

							}
, 							{
								"box" : 								{
									"maxclass" : "newobj",
									"text" : "mtof",
									"patching_rect" : [ 50.0, 130.0, 28.0, 17.0 ],
									"outlettype" : [ "" ],
									"id" : "obj-51",
									"fontname" : "Arial",
									"numinlets" : 1,
									"fontsize" : 9.0,
									"numoutlets" : 1
								}

							}
, 							{
								"box" : 								{
									"maxclass" : "inlet",
									"patching_rect" : [ 50.0, 40.0, 25.0, 25.0 ],
									"outlettype" : [ "" ],
									"id" : "obj-69",
									"numinlets" : 0,
									"numoutlets" : 1,
									"comment" : ""
								}

							}
, 							{
								"box" : 								{
									"maxclass" : "outlet",
									"patching_rect" : [ 50.0, 237.0, 25.0, 25.0 ],
									"id" : "obj-70",
									"numinlets" : 1,
									"numoutlets" : 0,
									"comment" : ""
								}

							}
 ],
						"lines" : [ 							{
								"patchline" : 								{
									"source" : [ "obj-66", 0 ],
									"destination" : [ "obj-70", 0 ],
									"hidden" : 0,
									"midpoints" : [  ]
								}

							}
, 							{
								"patchline" : 								{
									"source" : [ "obj-60", 0 ],
									"destination" : [ "obj-66", 11 ],
									"hidden" : 0,
									"midpoints" : [  ]
								}

							}
, 							{
								"patchline" : 								{
									"source" : [ "obj-61", 0 ],
									"destination" : [ "obj-66", 10 ],
									"hidden" : 0,
									"midpoints" : [  ]
								}

							}
, 							{
								"patchline" : 								{
									"source" : [ "obj-62", 0 ],
									"destination" : [ "obj-66", 9 ],
									"hidden" : 0,
									"midpoints" : [  ]
								}

							}
, 							{
								"patchline" : 								{
									"source" : [ "obj-63", 0 ],
									"destination" : [ "obj-66", 8 ],
									"hidden" : 0,
									"midpoints" : [  ]
								}

							}
, 							{
								"patchline" : 								{
									"source" : [ "obj-56", 0 ],
									"destination" : [ "obj-66", 7 ],
									"hidden" : 0,
									"midpoints" : [  ]
								}

							}
, 							{
								"patchline" : 								{
									"source" : [ "obj-57", 0 ],
									"destination" : [ "obj-66", 6 ],
									"hidden" : 0,
									"midpoints" : [  ]
								}

							}
, 							{
								"patchline" : 								{
									"source" : [ "obj-58", 0 ],
									"destination" : [ "obj-66", 5 ],
									"hidden" : 0,
									"midpoints" : [  ]
								}

							}
, 							{
								"patchline" : 								{
									"source" : [ "obj-59", 0 ],
									"destination" : [ "obj-66", 4 ],
									"hidden" : 0,
									"midpoints" : [  ]
								}

							}
, 							{
								"patchline" : 								{
									"source" : [ "obj-54", 0 ],
									"destination" : [ "obj-66", 3 ],
									"hidden" : 0,
									"midpoints" : [  ]
								}

							}
, 							{
								"patchline" : 								{
									"source" : [ "obj-55", 0 ],
									"destination" : [ "obj-66", 2 ],
									"hidden" : 0,
									"midpoints" : [  ]
								}

							}
, 							{
								"patchline" : 								{
									"source" : [ "obj-53", 0 ],
									"destination" : [ "obj-66", 1 ],
									"hidden" : 0,
									"midpoints" : [  ]
								}

							}
, 							{
								"patchline" : 								{
									"source" : [ "obj-51", 0 ],
									"destination" : [ "obj-66", 0 ],
									"hidden" : 0,
									"midpoints" : [  ]
								}

							}
, 							{
								"patchline" : 								{
									"source" : [ "obj-65", 0 ],
									"destination" : [ "obj-51", 0 ],
									"hidden" : 0,
									"midpoints" : [  ]
								}

							}
, 							{
								"patchline" : 								{
									"source" : [ "obj-65", 1 ],
									"destination" : [ "obj-53", 0 ],
									"hidden" : 0,
									"midpoints" : [  ]
								}

							}
, 							{
								"patchline" : 								{
									"source" : [ "obj-65", 2 ],
									"destination" : [ "obj-55", 0 ],
									"hidden" : 0,
									"midpoints" : [  ]
								}

							}
, 							{
								"patchline" : 								{
									"source" : [ "obj-65", 3 ],
									"destination" : [ "obj-54", 0 ],
									"hidden" : 0,
									"midpoints" : [  ]
								}

							}
, 							{
								"patchline" : 								{
									"source" : [ "obj-65", 4 ],
									"destination" : [ "obj-59", 0 ],
									"hidden" : 0,
									"midpoints" : [  ]
								}

							}
, 							{
								"patchline" : 								{
									"source" : [ "obj-65", 5 ],
									"destination" : [ "obj-58", 0 ],
									"hidden" : 0,
									"midpoints" : [  ]
								}

							}
, 							{
								"patchline" : 								{
									"source" : [ "obj-65", 6 ],
									"destination" : [ "obj-57", 0 ],
									"hidden" : 0,
									"midpoints" : [  ]
								}

							}
, 							{
								"patchline" : 								{
									"source" : [ "obj-65", 7 ],
									"destination" : [ "obj-56", 0 ],
									"hidden" : 0,
									"midpoints" : [  ]
								}

							}
, 							{
								"patchline" : 								{
									"source" : [ "obj-65", 8 ],
									"destination" : [ "obj-63", 0 ],
									"hidden" : 0,
									"midpoints" : [  ]
								}

							}
, 							{
								"patchline" : 								{
									"source" : [ "obj-65", 9 ],
									"destination" : [ "obj-62", 0 ],
									"hidden" : 0,
									"midpoints" : [  ]
								}

							}
, 							{
								"patchline" : 								{
									"source" : [ "obj-65", 10 ],
									"destination" : [ "obj-61", 0 ],
									"hidden" : 0,
									"midpoints" : [  ]
								}

							}
, 							{
								"patchline" : 								{
									"source" : [ "obj-65", 11 ],
									"destination" : [ "obj-60", 0 ],
									"hidden" : 0,
									"midpoints" : [  ]
								}

							}
, 							{
								"patchline" : 								{
									"source" : [ "obj-69", 0 ],
									"destination" : [ "obj-65", 0 ],
									"hidden" : 0,
									"midpoints" : [  ]
								}

							}
 ]
					}
,
					"saved_object_attributes" : 					{
						"default_fontname" : "Arial",
						"default_fontsize" : 10.0,
						"fontname" : "Arial",
						"globalpatchername" : "",
						"fontface" : 0,
						"default_fontface" : 0,
						"fontsize" : 10.0
					}

				}

			}
, 			{
				"box" : 				{
					"maxclass" : "comment",
					"text" : "scale-maker",
					"frgb" : [ 1.0, 1.0, 1.0, 1.0 ],
					"patching_rect" : [ 420.0, 130.0, 205.0, 20.0 ],
					"presentation" : 1,
					"textcolor" : [ 1.0, 1.0, 1.0, 1.0 ],
					"id" : "obj-35",
					"fontname" : "Arial",
					"numinlets" : 1,
					"fontface" : 1,
					"presentation_rect" : [ 10.0, 0.0, 85.0, 20.0 ],
					"fontsize" : 12.0,
					"numoutlets" : 0
				}

			}
, 			{
				"box" : 				{
					"maxclass" : "multislider",
					"bgcolor" : [ 0.0, 0.0, 0.0, 1.0 ],
					"patching_rect" : [ 40.0, 370.0, 121.0, 59.0 ],
					"slidercolor" : [ 0.360784, 0.741176, 0.964706, 1.0 ],
					"outlettype" : [ "", "" ],
					"presentation" : 1,
					"setminmax" : [ 0.0, 11.0 ],
					"id" : "obj-29",
					"spacing" : 2,
					"size" : 7,
					"ignoreclick" : 1,
					"numinlets" : 1,
					"presentation_rect" : [ 10.0, 61.0, 230.0, 39.0 ],
					"numoutlets" : 2
				}

			}
, 			{
				"box" : 				{
					"maxclass" : "newobj",
					"text" : "t b i",
					"patching_rect" : [ 120.0, 100.0, 40.0, 20.0 ],
					"outlettype" : [ "bang", "int" ],
					"id" : "obj-15",
					"fontname" : "Arial",
					"numinlets" : 1,
					"fontsize" : 12.0,
					"numoutlets" : 2
				}

			}
, 			{
				"box" : 				{
					"maxclass" : "comment",
					"text" : "oct",
					"frgb" : [ 1.0, 1.0, 1.0, 1.0 ],
					"patching_rect" : [ 190.0, 40.0, 179.0, 20.0 ],
					"presentation" : 1,
					"textcolor" : [ 1.0, 1.0, 1.0, 1.0 ],
					"id" : "obj-25",
					"fontname" : "Arial",
					"numinlets" : 1,
					"presentation_rect" : [ 130.0, 20.0, 27.0, 20.0 ],
					"fontsize" : 12.0,
					"numoutlets" : 0
				}

			}
, 			{
				"box" : 				{
					"maxclass" : "comment",
					"text" : "pch",
					"frgb" : [ 1.0, 1.0, 1.0, 1.0 ],
					"patching_rect" : [ 180.0, 130.0, 183.0, 20.0 ],
					"presentation" : 1,
					"textcolor" : [ 1.0, 1.0, 1.0, 1.0 ],
					"id" : "obj-22",
					"fontname" : "Arial",
					"numinlets" : 1,
					"presentation_rect" : [ 90.0, 20.0, 32.0, 20.0 ],
					"fontsize" : 12.0,
					"numoutlets" : 0
				}

			}
, 			{
				"box" : 				{
					"maxclass" : "comment",
					"text" : "scale",
					"frgb" : [ 1.0, 1.0, 1.0, 1.0 ],
					"patching_rect" : [ 420.0, 80.0, 185.0, 20.0 ],
					"presentation" : 1,
					"textcolor" : [ 1.0, 1.0, 1.0, 1.0 ],
					"id" : "obj-20",
					"fontname" : "Arial",
					"numinlets" : 1,
					"presentation_rect" : [ 10.0, 20.0, 39.0, 20.0 ],
					"fontsize" : 12.0,
					"numoutlets" : 0
				}

			}
, 			{
				"box" : 				{
					"maxclass" : "newobj",
					"text" : "+ 0",
					"patching_rect" : [ 120.0, 160.0, 41.0, 20.0 ],
					"outlettype" : [ "int" ],
					"id" : "obj-18",
					"fontname" : "Arial",
					"numinlets" : 2,
					"fontsize" : 12.0,
					"numoutlets" : 1
				}

			}
, 			{
				"box" : 				{
					"maxclass" : "newobj",
					"text" : "* 12",
					"patching_rect" : [ 120.0, 70.0, 39.0, 20.0 ],
					"outlettype" : [ "int" ],
					"id" : "obj-14",
					"fontname" : "Arial",
					"numinlets" : 2,
					"fontsize" : 12.0,
					"numoutlets" : 1
				}

			}
, 			{
				"box" : 				{
					"maxclass" : "outlet",
					"patching_rect" : [ 20.0, 610.0, 25.0, 25.0 ],
					"id" : "obj-10",
					"numinlets" : 1,
					"numoutlets" : 0,
					"comment" : "scale as midi-list"
				}

			}
, 			{
				"box" : 				{
					"maxclass" : "newobj",
					"text" : "p scales",
					"patching_rect" : [ 20.0, 230.0, 55.0, 20.0 ],
					"outlettype" : [ "" ],
					"id" : "obj-24",
					"fontname" : "Arial",
					"numinlets" : 1,
					"fontsize" : 12.0,
					"numoutlets" : 1,
					"patcher" : 					{
						"fileversion" : 1,
						"appversion" : 						{
							"major" : 5,
							"minor" : 1,
							"revision" : 9
						}
,
						"rect" : [ 3.0, 44.0, 1387.0, 736.0 ],
						"bglocked" : 0,
						"defrect" : [ 3.0, 44.0, 1387.0, 736.0 ],
						"openrect" : [ 0.0, 0.0, 0.0, 0.0 ],
						"openinpresentation" : 0,
						"default_fontsize" : 12.0,
						"default_fontface" : 0,
						"default_fontname" : "Arial",
						"gridonopen" : 0,
						"gridsize" : [ 10.0, 10.0 ],
						"gridsnaponopen" : 0,
						"toolbarvisible" : 1,
						"boxanimatetime" : 0,
						"imprint" : 0,
						"enablehscroll" : 1,
						"enablevscroll" : 1,
						"devicewidth" : 0.0,
						"boxes" : [ 							{
								"box" : 								{
									"maxclass" : "newobj",
									"text" : "p harmonic_major",
									"patching_rect" : [ 1038.0, 418.0, 291.0, 20.0 ],
									"outlettype" : [ "", "", "", "", "", "", "" ],
									"id" : "obj-5",
									"fontname" : "Arial",
									"numinlets" : 7,
									"fontsize" : 12.0,
									"numoutlets" : 7,
									"patcher" : 									{
										"fileversion" : 1,
										"appversion" : 										{
											"major" : 5,
											"minor" : 1,
											"revision" : 9
										}
,
										"rect" : [ 25.0, 69.0, 1312.0, 443.0 ],
										"bglocked" : 0,
										"defrect" : [ 25.0, 69.0, 1312.0, 443.0 ],
										"openrect" : [ 0.0, 0.0, 0.0, 0.0 ],
										"openinpresentation" : 0,
										"default_fontsize" : 12.0,
										"default_fontface" : 0,
										"default_fontname" : "Arial",
										"gridonopen" : 0,
										"gridsize" : [ 10.0, 10.0 ],
										"gridsnaponopen" : 0,
										"toolbarvisible" : 1,
										"boxanimatetime" : 200,
										"imprint" : 0,
										"enablehscroll" : 1,
										"enablevscroll" : 1,
										"devicewidth" : 0.0,
										"boxes" : [ 											{
												"box" : 												{
													"maxclass" : "comment",
													"text" : "harm.major 7",
													"patching_rect" : [ 1085.0, 100.0, 90.0, 20.0 ],
													"id" : "obj-57",
													"fontname" : "Arial",
													"numinlets" : 1,
													"fontsize" : 12.0,
													"numoutlets" : 0
												}

											}
, 											{
												"box" : 												{
													"maxclass" : "comment",
													"text" : "harm.major 6",
													"patching_rect" : [ 913.0, 96.0, 90.0, 20.0 ],
													"id" : "obj-55",
													"fontname" : "Arial",
													"numinlets" : 1,
													"fontsize" : 12.0,
													"numoutlets" : 0
												}

											}
, 											{
												"box" : 												{
													"maxclass" : "comment",
													"text" : "harm.major 5",
													"patching_rect" : [ 748.0, 95.0, 90.0, 20.0 ],
													"id" : "obj-54",
													"fontname" : "Arial",
													"numinlets" : 1,
													"fontsize" : 12.0,
													"numoutlets" : 0
												}

											}
, 											{
												"box" : 												{
													"maxclass" : "comment",
													"text" : "harm.major 4",
													"patching_rect" : [ 604.0, 100.0, 90.0, 20.0 ],
													"id" : "obj-53",
													"fontname" : "Arial",
													"numinlets" : 1,
													"fontsize" : 12.0,
													"numoutlets" : 0
												}

											}
, 											{
												"box" : 												{
													"maxclass" : "comment",
													"text" : "harm.major 3",
													"patching_rect" : [ 421.0, 100.0, 90.0, 20.0 ],
													"id" : "obj-52",
													"fontname" : "Arial",
													"numinlets" : 1,
													"fontsize" : 12.0,
													"numoutlets" : 0
												}

											}
, 											{
												"box" : 												{
													"maxclass" : "comment",
													"text" : "harm.major 2",
													"patching_rect" : [ 231.0, 94.0, 90.0, 20.0 ],
													"id" : "obj-51",
													"fontname" : "Arial",
													"numinlets" : 1,
													"fontsize" : 12.0,
													"numoutlets" : 0
												}

											}
, 											{
												"box" : 												{
													"maxclass" : "comment",
													"text" : "harm.major",
													"patching_rect" : [ 65.0, 100.0, 78.0, 20.0 ],
													"id" : "obj-50",
													"fontname" : "Arial",
													"numinlets" : 1,
													"fontsize" : 12.0,
													"numoutlets" : 0
												}

											}
, 											{
												"box" : 												{
													"maxclass" : "message",
													"text" : "0 1 3 5 6 8 9",
													"patching_rect" : [ 1070.0, 115.0, 77.0, 18.0 ],
													"outlettype" : [ "" ],
													"id" : "obj-49",
													"fontname" : "Arial",
													"numinlets" : 2,
													"fontsize" : 12.0,
													"numoutlets" : 1
												}

											}
, 											{
												"box" : 												{
													"maxclass" : "message",
													"text" : "0 3 4 6 8 9 11",
													"patching_rect" : [ 900.0, 115.0, 83.0, 18.0 ],
													"outlettype" : [ "" ],
													"id" : "obj-48",
													"fontname" : "Arial",
													"numinlets" : 2,
													"fontsize" : 12.0,
													"numoutlets" : 1
												}

											}
, 											{
												"box" : 												{
													"maxclass" : "message",
													"text" : "0 1 4 5 7 9 10",
													"patching_rect" : [ 730.0, 115.0, 84.0, 18.0 ],
													"outlettype" : [ "" ],
													"id" : "obj-47",
													"fontname" : "Arial",
													"numinlets" : 2,
													"fontsize" : 12.0,
													"numoutlets" : 1
												}

											}
, 											{
												"box" : 												{
													"maxclass" : "message",
													"text" : "0 2 3 6 7 9 11",
													"patching_rect" : [ 560.0, 115.0, 83.0, 18.0 ],
													"outlettype" : [ "" ],
													"id" : "obj-46",
													"fontname" : "Arial",
													"numinlets" : 2,
													"fontsize" : 12.0,
													"numoutlets" : 1
												}

											}
, 											{
												"box" : 												{
													"maxclass" : "message",
													"text" : "0 1 3 4 7 8 10",
													"patching_rect" : [ 390.0, 115.0, 84.0, 18.0 ],
													"outlettype" : [ "" ],
													"id" : "obj-45",
													"fontname" : "Arial",
													"numinlets" : 2,
													"fontsize" : 12.0,
													"numoutlets" : 1
												}

											}
, 											{
												"box" : 												{
													"maxclass" : "message",
													"text" : "0 2 3 5 6 9 10",
													"patching_rect" : [ 219.0, 115.0, 84.0, 18.0 ],
													"outlettype" : [ "" ],
													"id" : "obj-44",
													"fontname" : "Arial",
													"numinlets" : 2,
													"fontsize" : 12.0,
													"numoutlets" : 1
												}

											}
, 											{
												"box" : 												{
													"maxclass" : "message",
													"text" : "0 2 4 5 7 8 11",
													"patching_rect" : [ 50.0, 114.0, 83.0, 18.0 ],
													"outlettype" : [ "" ],
													"id" : "obj-5",
													"fontname" : "Arial",
													"numinlets" : 2,
													"fontsize" : 12.0,
													"numoutlets" : 1
												}

											}
, 											{
												"box" : 												{
													"maxclass" : "inlet",
													"patching_rect" : [ 50.0, 40.0, 25.0, 25.0 ],
													"outlettype" : [ "bang" ],
													"id" : "obj-58",
													"numinlets" : 0,
													"numoutlets" : 1,
													"comment" : ""
												}

											}
, 											{
												"box" : 												{
													"maxclass" : "inlet",
													"patching_rect" : [ 220.0, 40.0, 25.0, 25.0 ],
													"outlettype" : [ "bang" ],
													"id" : "obj-59",
													"numinlets" : 0,
													"numoutlets" : 1,
													"comment" : ""
												}

											}
, 											{
												"box" : 												{
													"maxclass" : "inlet",
													"patching_rect" : [ 390.0, 40.0, 25.0, 25.0 ],
													"outlettype" : [ "bang" ],
													"id" : "obj-60",
													"numinlets" : 0,
													"numoutlets" : 1,
													"comment" : ""
												}

											}
, 											{
												"box" : 												{
													"maxclass" : "inlet",
													"patching_rect" : [ 560.0, 40.0, 25.0, 25.0 ],
													"outlettype" : [ "bang" ],
													"id" : "obj-61",
													"numinlets" : 0,
													"numoutlets" : 1,
													"comment" : ""
												}

											}
, 											{
												"box" : 												{
													"maxclass" : "inlet",
													"patching_rect" : [ 730.0, 40.0, 25.0, 25.0 ],
													"outlettype" : [ "bang" ],
													"id" : "obj-62",
													"numinlets" : 0,
													"numoutlets" : 1,
													"comment" : ""
												}

											}
, 											{
												"box" : 												{
													"maxclass" : "inlet",
													"patching_rect" : [ 900.0, 40.0, 25.0, 25.0 ],
													"outlettype" : [ "bang" ],
													"id" : "obj-63",
													"numinlets" : 0,
													"numoutlets" : 1,
													"comment" : ""
												}

											}
, 											{
												"box" : 												{
													"maxclass" : "inlet",
													"patching_rect" : [ 1070.0, 40.0, 25.0, 25.0 ],
													"outlettype" : [ "bang" ],
													"id" : "obj-64",
													"numinlets" : 0,
													"numoutlets" : 1,
													"comment" : ""
												}

											}
, 											{
												"box" : 												{
													"maxclass" : "outlet",
													"patching_rect" : [ 50.0, 191.0, 25.0, 25.0 ],
													"id" : "obj-65",
													"numinlets" : 1,
													"numoutlets" : 0,
													"comment" : ""
												}

											}
, 											{
												"box" : 												{
													"maxclass" : "outlet",
													"patching_rect" : [ 220.0, 191.0, 25.0, 25.0 ],
													"id" : "obj-66",
													"numinlets" : 1,
													"numoutlets" : 0,
													"comment" : ""
												}

											}
, 											{
												"box" : 												{
													"maxclass" : "outlet",
													"patching_rect" : [ 390.0, 191.0, 25.0, 25.0 ],
													"id" : "obj-67",
													"numinlets" : 1,
													"numoutlets" : 0,
													"comment" : ""
												}

											}
, 											{
												"box" : 												{
													"maxclass" : "outlet",
													"patching_rect" : [ 560.0, 191.0, 25.0, 25.0 ],
													"id" : "obj-68",
													"numinlets" : 1,
													"numoutlets" : 0,
													"comment" : ""
												}

											}
, 											{
												"box" : 												{
													"maxclass" : "outlet",
													"patching_rect" : [ 730.0, 191.0, 25.0, 25.0 ],
													"id" : "obj-69",
													"numinlets" : 1,
													"numoutlets" : 0,
													"comment" : ""
												}

											}
, 											{
												"box" : 												{
													"maxclass" : "outlet",
													"patching_rect" : [ 900.0, 191.0, 25.0, 25.0 ],
													"id" : "obj-70",
													"numinlets" : 1,
													"numoutlets" : 0,
													"comment" : ""
												}

											}
, 											{
												"box" : 												{
													"maxclass" : "outlet",
													"patching_rect" : [ 1070.0, 191.0, 25.0, 25.0 ],
													"id" : "obj-71",
													"numinlets" : 1,
													"numoutlets" : 0,
													"comment" : ""
												}

											}
 ],
										"lines" : [ 											{
												"patchline" : 												{
													"source" : [ "obj-44", 0 ],
													"destination" : [ "obj-66", 0 ],
													"hidden" : 0,
													"midpoints" : [  ]
												}

											}
, 											{
												"patchline" : 												{
													"source" : [ "obj-59", 0 ],
													"destination" : [ "obj-44", 0 ],
													"hidden" : 0,
													"midpoints" : [  ]
												}

											}
, 											{
												"patchline" : 												{
													"source" : [ "obj-58", 0 ],
													"destination" : [ "obj-5", 0 ],
													"hidden" : 0,
													"midpoints" : [  ]
												}

											}
, 											{
												"patchline" : 												{
													"source" : [ "obj-60", 0 ],
													"destination" : [ "obj-45", 0 ],
													"hidden" : 0,
													"midpoints" : [  ]
												}

											}
, 											{
												"patchline" : 												{
													"source" : [ "obj-61", 0 ],
													"destination" : [ "obj-46", 0 ],
													"hidden" : 0,
													"midpoints" : [  ]
												}

											}
, 											{
												"patchline" : 												{
													"source" : [ "obj-62", 0 ],
													"destination" : [ "obj-47", 0 ],
													"hidden" : 0,
													"midpoints" : [  ]
												}

											}
, 											{
												"patchline" : 												{
													"source" : [ "obj-63", 0 ],
													"destination" : [ "obj-48", 0 ],
													"hidden" : 0,
													"midpoints" : [  ]
												}

											}
, 											{
												"patchline" : 												{
													"source" : [ "obj-64", 0 ],
													"destination" : [ "obj-49", 0 ],
													"hidden" : 0,
													"midpoints" : [  ]
												}

											}
, 											{
												"patchline" : 												{
													"source" : [ "obj-5", 0 ],
													"destination" : [ "obj-65", 0 ],
													"hidden" : 0,
													"midpoints" : [  ]
												}

											}
, 											{
												"patchline" : 												{
													"source" : [ "obj-45", 0 ],
													"destination" : [ "obj-67", 0 ],
													"hidden" : 0,
													"midpoints" : [  ]
												}

											}
, 											{
												"patchline" : 												{
													"source" : [ "obj-46", 0 ],
													"destination" : [ "obj-68", 0 ],
													"hidden" : 0,
													"midpoints" : [  ]
												}

											}
, 											{
												"patchline" : 												{
													"source" : [ "obj-47", 0 ],
													"destination" : [ "obj-69", 0 ],
													"hidden" : 0,
													"midpoints" : [  ]
												}

											}
, 											{
												"patchline" : 												{
													"source" : [ "obj-48", 0 ],
													"destination" : [ "obj-70", 0 ],
													"hidden" : 0,
													"midpoints" : [  ]
												}

											}
, 											{
												"patchline" : 												{
													"source" : [ "obj-49", 0 ],
													"destination" : [ "obj-71", 0 ],
													"hidden" : 0,
													"midpoints" : [  ]
												}

											}
 ]
									}
,
									"saved_object_attributes" : 									{
										"default_fontname" : "Arial",
										"default_fontsize" : 12.0,
										"fontname" : "Arial",
										"globalpatchername" : "",
										"fontface" : 0,
										"default_fontface" : 0,
										"fontsize" : 12.0
									}

								}

							}
, 							{
								"box" : 								{
									"maxclass" : "newobj",
									"text" : "p meldoic_minor",
									"patching_rect" : [ 691.0, 414.0, 323.0, 20.0 ],
									"outlettype" : [ "", "", "", "", "", "", "" ],
									"id" : "obj-72",
									"fontname" : "Arial",
									"numinlets" : 7,
									"fontsize" : 12.0,
									"numoutlets" : 7,
									"patcher" : 									{
										"fileversion" : 1,
										"appversion" : 										{
											"major" : 5,
											"minor" : 1,
											"revision" : 9
										}
,
										"rect" : [ 25.0, 69.0, 1312.0, 443.0 ],
										"bglocked" : 0,
										"defrect" : [ 25.0, 69.0, 1312.0, 443.0 ],
										"openrect" : [ 0.0, 0.0, 0.0, 0.0 ],
										"openinpresentation" : 0,
										"default_fontsize" : 12.0,
										"default_fontface" : 0,
										"default_fontname" : "Arial",
										"gridonopen" : 0,
										"gridsize" : [ 10.0, 10.0 ],
										"gridsnaponopen" : 0,
										"toolbarvisible" : 1,
										"boxanimatetime" : 200,
										"imprint" : 0,
										"enablehscroll" : 1,
										"enablevscroll" : 1,
										"devicewidth" : 0.0,
										"boxes" : [ 											{
												"box" : 												{
													"maxclass" : "comment",
													"text" : "altered",
													"patching_rect" : [ 1085.0, 100.0, 74.0, 20.0 ],
													"id" : "obj-57",
													"fontname" : "Arial",
													"numinlets" : 1,
													"fontsize" : 12.0,
													"numoutlets" : 0
												}

											}
, 											{
												"box" : 												{
													"maxclass" : "comment",
													"text" : "locrian 9",
													"patching_rect" : [ 930.0, 100.0, 67.0, 20.0 ],
													"id" : "obj-55",
													"fontname" : "Arial",
													"numinlets" : 1,
													"fontsize" : 12.0,
													"numoutlets" : 0
												}

											}
, 											{
												"box" : 												{
													"maxclass" : "comment",
													"text" : "mixo b13",
													"patching_rect" : [ 760.0, 100.0, 68.0, 20.0 ],
													"id" : "obj-54",
													"fontname" : "Arial",
													"numinlets" : 1,
													"fontsize" : 12.0,
													"numoutlets" : 0
												}

											}
, 											{
												"box" : 												{
													"maxclass" : "comment",
													"text" : "mixo #11",
													"patching_rect" : [ 605.0, 100.0, 68.0, 20.0 ],
													"id" : "obj-53",
													"fontname" : "Arial",
													"numinlets" : 1,
													"fontsize" : 12.0,
													"numoutlets" : 0
												}

											}
, 											{
												"box" : 												{
													"maxclass" : "comment",
													"text" : "lydian #5",
													"patching_rect" : [ 420.0, 100.0, 68.0, 20.0 ],
													"id" : "obj-52",
													"fontname" : "Arial",
													"numinlets" : 1,
													"fontsize" : 12.0,
													"numoutlets" : 0
												}

											}
, 											{
												"box" : 												{
													"maxclass" : "comment",
													"text" : "dorian b9",
													"patching_rect" : [ 250.0, 100.0, 68.0, 20.0 ],
													"id" : "obj-51",
													"fontname" : "Arial",
													"numinlets" : 1,
													"fontsize" : 12.0,
													"numoutlets" : 0
												}

											}
, 											{
												"box" : 												{
													"maxclass" : "comment",
													"text" : "mel.minor",
													"patching_rect" : [ 65.0, 100.0, 68.0, 20.0 ],
													"id" : "obj-50",
													"fontname" : "Arial",
													"numinlets" : 1,
													"fontsize" : 12.0,
													"numoutlets" : 0
												}

											}
, 											{
												"box" : 												{
													"maxclass" : "message",
													"text" : "0 1 3 4 6 8 10",
													"patching_rect" : [ 1070.0, 115.0, 84.0, 18.0 ],
													"outlettype" : [ "" ],
													"id" : "obj-49",
													"fontname" : "Arial",
													"numinlets" : 2,
													"fontsize" : 12.0,
													"numoutlets" : 1
												}

											}
, 											{
												"box" : 												{
													"maxclass" : "message",
													"text" : "0 2 3 5 7 9 11",
													"patching_rect" : [ 900.0, 115.0, 83.0, 18.0 ],
													"outlettype" : [ "" ],
													"id" : "obj-48",
													"fontname" : "Arial",
													"numinlets" : 2,
													"fontsize" : 12.0,
													"numoutlets" : 1
												}

											}
, 											{
												"box" : 												{
													"maxclass" : "message",
													"text" : "0 2 4 5 6 8 10",
													"patching_rect" : [ 730.0, 115.0, 84.0, 18.0 ],
													"outlettype" : [ "" ],
													"id" : "obj-47",
													"fontname" : "Arial",
													"numinlets" : 2,
													"fontsize" : 12.0,
													"numoutlets" : 1
												}

											}
, 											{
												"box" : 												{
													"maxclass" : "message",
													"text" : "0 2 4 6 8 9 11",
													"patching_rect" : [ 560.0, 115.0, 83.0, 18.0 ],
													"outlettype" : [ "" ],
													"id" : "obj-46",
													"fontname" : "Arial",
													"numinlets" : 2,
													"fontsize" : 12.0,
													"numoutlets" : 1
												}

											}
, 											{
												"box" : 												{
													"maxclass" : "message",
													"text" : "0 2 4 6 7 9 10",
													"patching_rect" : [ 390.0, 115.0, 84.0, 18.0 ],
													"outlettype" : [ "" ],
													"id" : "obj-45",
													"fontname" : "Arial",
													"numinlets" : 2,
													"fontsize" : 12.0,
													"numoutlets" : 1
												}

											}
, 											{
												"box" : 												{
													"maxclass" : "message",
													"text" : "0 1 3 5 7 8 10",
													"patching_rect" : [ 220.0, 115.0, 84.0, 18.0 ],
													"outlettype" : [ "" ],
													"id" : "obj-44",
													"fontname" : "Arial",
													"numinlets" : 2,
													"fontsize" : 12.0,
													"numoutlets" : 1
												}

											}
, 											{
												"box" : 												{
													"maxclass" : "message",
													"text" : "0 2 3 5 7 9 10",
													"patching_rect" : [ 50.0, 115.0, 84.0, 18.0 ],
													"outlettype" : [ "" ],
													"id" : "obj-5",
													"fontname" : "Arial",
													"numinlets" : 2,
													"fontsize" : 12.0,
													"numoutlets" : 1
												}

											}
, 											{
												"box" : 												{
													"maxclass" : "inlet",
													"patching_rect" : [ 50.0, 40.0, 25.0, 25.0 ],
													"outlettype" : [ "bang" ],
													"id" : "obj-58",
													"numinlets" : 0,
													"numoutlets" : 1,
													"comment" : ""
												}

											}
, 											{
												"box" : 												{
													"maxclass" : "inlet",
													"patching_rect" : [ 220.0, 40.0, 25.0, 25.0 ],
													"outlettype" : [ "bang" ],
													"id" : "obj-59",
													"numinlets" : 0,
													"numoutlets" : 1,
													"comment" : ""
												}

											}
, 											{
												"box" : 												{
													"maxclass" : "inlet",
													"patching_rect" : [ 390.0, 40.0, 25.0, 25.0 ],
													"outlettype" : [ "bang" ],
													"id" : "obj-60",
													"numinlets" : 0,
													"numoutlets" : 1,
													"comment" : ""
												}

											}
, 											{
												"box" : 												{
													"maxclass" : "inlet",
													"patching_rect" : [ 560.0, 40.0, 25.0, 25.0 ],
													"outlettype" : [ "bang" ],
													"id" : "obj-61",
													"numinlets" : 0,
													"numoutlets" : 1,
													"comment" : ""
												}

											}
, 											{
												"box" : 												{
													"maxclass" : "inlet",
													"patching_rect" : [ 730.0, 40.0, 25.0, 25.0 ],
													"outlettype" : [ "bang" ],
													"id" : "obj-62",
													"numinlets" : 0,
													"numoutlets" : 1,
													"comment" : ""
												}

											}
, 											{
												"box" : 												{
													"maxclass" : "inlet",
													"patching_rect" : [ 900.0, 40.0, 25.0, 25.0 ],
													"outlettype" : [ "bang" ],
													"id" : "obj-63",
													"numinlets" : 0,
													"numoutlets" : 1,
													"comment" : ""
												}

											}
, 											{
												"box" : 												{
													"maxclass" : "inlet",
													"patching_rect" : [ 1070.0, 40.0, 25.0, 25.0 ],
													"outlettype" : [ "bang" ],
													"id" : "obj-64",
													"numinlets" : 0,
													"numoutlets" : 1,
													"comment" : ""
												}

											}
, 											{
												"box" : 												{
													"maxclass" : "outlet",
													"patching_rect" : [ 50.0, 191.0, 25.0, 25.0 ],
													"id" : "obj-65",
													"numinlets" : 1,
													"numoutlets" : 0,
													"comment" : ""
												}

											}
, 											{
												"box" : 												{
													"maxclass" : "outlet",
													"patching_rect" : [ 220.0, 191.0, 25.0, 25.0 ],
													"id" : "obj-66",
													"numinlets" : 1,
													"numoutlets" : 0,
													"comment" : ""
												}

											}
, 											{
												"box" : 												{
													"maxclass" : "outlet",
													"patching_rect" : [ 390.0, 191.0, 25.0, 25.0 ],
													"id" : "obj-67",
													"numinlets" : 1,
													"numoutlets" : 0,
													"comment" : ""
												}

											}
, 											{
												"box" : 												{
													"maxclass" : "outlet",
													"patching_rect" : [ 560.0, 191.0, 25.0, 25.0 ],
													"id" : "obj-68",
													"numinlets" : 1,
													"numoutlets" : 0,
													"comment" : ""
												}

											}
, 											{
												"box" : 												{
													"maxclass" : "outlet",
													"patching_rect" : [ 730.0, 191.0, 25.0, 25.0 ],
													"id" : "obj-69",
													"numinlets" : 1,
													"numoutlets" : 0,
													"comment" : ""
												}

											}
, 											{
												"box" : 												{
													"maxclass" : "outlet",
													"patching_rect" : [ 900.0, 191.0, 25.0, 25.0 ],
													"id" : "obj-70",
													"numinlets" : 1,
													"numoutlets" : 0,
													"comment" : ""
												}

											}
, 											{
												"box" : 												{
													"maxclass" : "outlet",
													"patching_rect" : [ 1070.0, 191.0, 25.0, 25.0 ],
													"id" : "obj-71",
													"numinlets" : 1,
													"numoutlets" : 0,
													"comment" : ""
												}

											}
 ],
										"lines" : [ 											{
												"patchline" : 												{
													"source" : [ "obj-58", 0 ],
													"destination" : [ "obj-5", 0 ],
													"hidden" : 0,
													"midpoints" : [  ]
												}

											}
, 											{
												"patchline" : 												{
													"source" : [ "obj-59", 0 ],
													"destination" : [ "obj-44", 0 ],
													"hidden" : 0,
													"midpoints" : [  ]
												}

											}
, 											{
												"patchline" : 												{
													"source" : [ "obj-60", 0 ],
													"destination" : [ "obj-45", 0 ],
													"hidden" : 0,
													"midpoints" : [  ]
												}

											}
, 											{
												"patchline" : 												{
													"source" : [ "obj-61", 0 ],
													"destination" : [ "obj-46", 0 ],
													"hidden" : 0,
													"midpoints" : [  ]
												}

											}
, 											{
												"patchline" : 												{
													"source" : [ "obj-62", 0 ],
													"destination" : [ "obj-47", 0 ],
													"hidden" : 0,
													"midpoints" : [  ]
												}

											}
, 											{
												"patchline" : 												{
													"source" : [ "obj-63", 0 ],
													"destination" : [ "obj-48", 0 ],
													"hidden" : 0,
													"midpoints" : [  ]
												}

											}
, 											{
												"patchline" : 												{
													"source" : [ "obj-64", 0 ],
													"destination" : [ "obj-49", 0 ],
													"hidden" : 0,
													"midpoints" : [  ]
												}

											}
, 											{
												"patchline" : 												{
													"source" : [ "obj-5", 0 ],
													"destination" : [ "obj-65", 0 ],
													"hidden" : 0,
													"midpoints" : [  ]
												}

											}
, 											{
												"patchline" : 												{
													"source" : [ "obj-44", 0 ],
													"destination" : [ "obj-66", 0 ],
													"hidden" : 0,
													"midpoints" : [  ]
												}

											}
, 											{
												"patchline" : 												{
													"source" : [ "obj-45", 0 ],
													"destination" : [ "obj-67", 0 ],
													"hidden" : 0,
													"midpoints" : [  ]
												}

											}
, 											{
												"patchline" : 												{
													"source" : [ "obj-46", 0 ],
													"destination" : [ "obj-68", 0 ],
													"hidden" : 0,
													"midpoints" : [  ]
												}

											}
, 											{
												"patchline" : 												{
													"source" : [ "obj-47", 0 ],
													"destination" : [ "obj-69", 0 ],
													"hidden" : 0,
													"midpoints" : [  ]
												}

											}
, 											{
												"patchline" : 												{
													"source" : [ "obj-48", 0 ],
													"destination" : [ "obj-70", 0 ],
													"hidden" : 0,
													"midpoints" : [  ]
												}

											}
, 											{
												"patchline" : 												{
													"source" : [ "obj-49", 0 ],
													"destination" : [ "obj-71", 0 ],
													"hidden" : 0,
													"midpoints" : [  ]
												}

											}
 ]
									}
,
									"saved_object_attributes" : 									{
										"default_fontname" : "Arial",
										"default_fontsize" : 12.0,
										"fontname" : "Arial",
										"globalpatchername" : "",
										"fontface" : 0,
										"default_fontface" : 0,
										"fontsize" : 12.0
									}

								}

							}
, 							{
								"box" : 								{
									"maxclass" : "newobj",
									"text" : "p modal_scales",
									"patching_rect" : [ 75.0, 300.0, 345.0, 20.0 ],
									"outlettype" : [ "", "", "", "", "", "", "" ],
									"id" : "obj-42",
									"fontname" : "Arial",
									"numinlets" : 7,
									"fontsize" : 12.0,
									"numoutlets" : 7,
									"patcher" : 									{
										"fileversion" : 1,
										"appversion" : 										{
											"major" : 5,
											"minor" : 1,
											"revision" : 9
										}
,
										"rect" : [ 25.0, 69.0, 955.0, 477.0 ],
										"bglocked" : 0,
										"defrect" : [ 25.0, 69.0, 955.0, 477.0 ],
										"openrect" : [ 0.0, 0.0, 0.0, 0.0 ],
										"openinpresentation" : 0,
										"default_fontsize" : 12.0,
										"default_fontface" : 0,
										"default_fontname" : "Arial",
										"gridonopen" : 0,
										"gridsize" : [ 10.0, 10.0 ],
										"gridsnaponopen" : 0,
										"toolbarvisible" : 1,
										"boxanimatetime" : 200,
										"imprint" : 0,
										"enablehscroll" : 1,
										"enablevscroll" : 1,
										"devicewidth" : 0.0,
										"boxes" : [ 											{
												"box" : 												{
													"maxclass" : "comment",
													"text" : "locrian",
													"patching_rect" : [ 390.0, 290.0, 67.0, 20.0 ],
													"id" : "obj-29",
													"fontname" : "Arial",
													"numinlets" : 1,
													"fontsize" : 12.0,
													"numoutlets" : 0
												}

											}
, 											{
												"box" : 												{
													"maxclass" : "comment",
													"text" : "aeolian",
													"patching_rect" : [ 345.0, 260.0, 67.0, 20.0 ],
													"id" : "obj-23",
													"fontname" : "Arial",
													"numinlets" : 1,
													"fontsize" : 12.0,
													"numoutlets" : 0
												}

											}
, 											{
												"box" : 												{
													"maxclass" : "comment",
													"text" : "mixolydian",
													"patching_rect" : [ 290.0, 230.0, 67.0, 20.0 ],
													"id" : "obj-19",
													"fontname" : "Arial",
													"numinlets" : 1,
													"fontsize" : 12.0,
													"numoutlets" : 0
												}

											}
, 											{
												"box" : 												{
													"maxclass" : "comment",
													"text" : "lydian",
													"patching_rect" : [ 270.0, 200.0, 67.0, 20.0 ],
													"id" : "obj-15",
													"fontname" : "Arial",
													"numinlets" : 1,
													"fontsize" : 12.0,
													"numoutlets" : 0
												}

											}
, 											{
												"box" : 												{
													"maxclass" : "comment",
													"text" : "phrygian",
													"patching_rect" : [ 220.0, 170.0, 62.0, 20.0 ],
													"id" : "obj-13",
													"fontname" : "Arial",
													"numinlets" : 1,
													"fontsize" : 12.0,
													"numoutlets" : 0
												}

											}
, 											{
												"box" : 												{
													"maxclass" : "comment",
													"text" : "dorian",
													"patching_rect" : [ 180.0, 140.0, 56.0, 20.0 ],
													"id" : "obj-10",
													"fontname" : "Arial",
													"numinlets" : 1,
													"fontsize" : 12.0,
													"numoutlets" : 0
												}

											}
, 											{
												"box" : 												{
													"maxclass" : "comment",
													"text" : "ionian",
													"patching_rect" : [ 140.0, 110.0, 53.0, 20.0 ],
													"id" : "obj-8",
													"fontname" : "Arial",
													"numinlets" : 1,
													"fontsize" : 12.0,
													"numoutlets" : 0
												}

											}
, 											{
												"box" : 												{
													"maxclass" : "message",
													"text" : "0 2 3 5 7 8 10",
													"patching_rect" : [ 260.0, 260.0, 84.0, 18.0 ],
													"outlettype" : [ "" ],
													"id" : "obj-38",
													"fontname" : "Arial",
													"numinlets" : 2,
													"fontsize" : 12.0,
													"numoutlets" : 1
												}

											}
, 											{
												"box" : 												{
													"maxclass" : "message",
													"text" : "0 1 3 5 7 9 11",
													"patching_rect" : [ 300.0, 290.0, 83.0, 18.0 ],
													"outlettype" : [ "" ],
													"id" : "obj-36",
													"fontname" : "Arial",
													"numinlets" : 2,
													"fontsize" : 12.0,
													"numoutlets" : 1
												}

											}
, 											{
												"box" : 												{
													"maxclass" : "message",
													"text" : "0 2 4 5 7 8 10",
													"patching_rect" : [ 210.0, 230.0, 84.0, 18.0 ],
													"outlettype" : [ "" ],
													"id" : "obj-34",
													"fontname" : "Arial",
													"numinlets" : 2,
													"fontsize" : 12.0,
													"numoutlets" : 1
												}

											}
, 											{
												"box" : 												{
													"maxclass" : "message",
													"text" : "0 2 4 6 8 10 11",
													"patching_rect" : [ 170.0, 201.0, 90.0, 18.0 ],
													"outlettype" : [ "" ],
													"id" : "obj-32",
													"fontname" : "Arial",
													"numinlets" : 2,
													"fontsize" : 12.0,
													"numoutlets" : 1
												}

											}
, 											{
												"box" : 												{
													"maxclass" : "message",
													"text" : "0 1 3 5 6 8 10",
													"patching_rect" : [ 130.0, 170.0, 84.0, 18.0 ],
													"outlettype" : [ "" ],
													"id" : "obj-30",
													"fontname" : "Arial",
													"numinlets" : 2,
													"fontsize" : 12.0,
													"numoutlets" : 1
												}

											}
, 											{
												"box" : 												{
													"maxclass" : "message",
													"text" : "0 2 3 5 7 9 10",
													"patching_rect" : [ 90.0, 140.0, 84.0, 18.0 ],
													"outlettype" : [ "" ],
													"id" : "obj-25",
													"fontname" : "Arial",
													"numinlets" : 2,
													"fontsize" : 12.0,
													"numoutlets" : 1
												}

											}
, 											{
												"box" : 												{
													"maxclass" : "message",
													"text" : "0 2 4 5 7 9 11",
													"patching_rect" : [ 50.0, 110.0, 83.0, 18.0 ],
													"outlettype" : [ "" ],
													"id" : "obj-6",
													"fontname" : "Arial",
													"numinlets" : 2,
													"fontsize" : 12.0,
													"numoutlets" : 1
												}

											}
, 											{
												"box" : 												{
													"maxclass" : "inlet",
													"patching_rect" : [ 50.0, 40.0, 25.0, 25.0 ],
													"outlettype" : [ "bang" ],
													"id" : "obj-12",
													"numinlets" : 0,
													"numoutlets" : 1,
													"comment" : ""
												}

											}
, 											{
												"box" : 												{
													"maxclass" : "inlet",
													"patching_rect" : [ 90.0, 40.0, 25.0, 25.0 ],
													"outlettype" : [ "bang" ],
													"id" : "obj-14",
													"numinlets" : 0,
													"numoutlets" : 1,
													"comment" : ""
												}

											}
, 											{
												"box" : 												{
													"maxclass" : "inlet",
													"patching_rect" : [ 130.0, 40.0, 25.0, 25.0 ],
													"outlettype" : [ "bang" ],
													"id" : "obj-16",
													"numinlets" : 0,
													"numoutlets" : 1,
													"comment" : ""
												}

											}
, 											{
												"box" : 												{
													"maxclass" : "inlet",
													"patching_rect" : [ 170.0, 40.0, 25.0, 25.0 ],
													"outlettype" : [ "bang" ],
													"id" : "obj-17",
													"numinlets" : 0,
													"numoutlets" : 1,
													"comment" : ""
												}

											}
, 											{
												"box" : 												{
													"maxclass" : "inlet",
													"patching_rect" : [ 210.0, 40.0, 25.0, 25.0 ],
													"outlettype" : [ "bang" ],
													"id" : "obj-18",
													"numinlets" : 0,
													"numoutlets" : 1,
													"comment" : ""
												}

											}
, 											{
												"box" : 												{
													"maxclass" : "inlet",
													"patching_rect" : [ 260.0, 40.0, 25.0, 25.0 ],
													"outlettype" : [ "bang" ],
													"id" : "obj-24",
													"numinlets" : 0,
													"numoutlets" : 1,
													"comment" : ""
												}

											}
, 											{
												"box" : 												{
													"maxclass" : "inlet",
													"patching_rect" : [ 305.0, 40.0, 25.0, 25.0 ],
													"outlettype" : [ "bang" ],
													"id" : "obj-26",
													"numinlets" : 0,
													"numoutlets" : 1,
													"comment" : ""
												}

											}
, 											{
												"box" : 												{
													"maxclass" : "outlet",
													"patching_rect" : [ 50.0, 350.0, 25.0, 25.0 ],
													"id" : "obj-31",
													"numinlets" : 1,
													"numoutlets" : 0,
													"comment" : ""
												}

											}
, 											{
												"box" : 												{
													"maxclass" : "outlet",
													"patching_rect" : [ 90.0, 350.0, 25.0, 25.0 ],
													"id" : "obj-33",
													"numinlets" : 1,
													"numoutlets" : 0,
													"comment" : ""
												}

											}
, 											{
												"box" : 												{
													"maxclass" : "outlet",
													"patching_rect" : [ 130.0, 350.0, 25.0, 25.0 ],
													"id" : "obj-35",
													"numinlets" : 1,
													"numoutlets" : 0,
													"comment" : ""
												}

											}
, 											{
												"box" : 												{
													"maxclass" : "outlet",
													"patching_rect" : [ 170.0, 350.0, 25.0, 25.0 ],
													"id" : "obj-37",
													"numinlets" : 1,
													"numoutlets" : 0,
													"comment" : ""
												}

											}
, 											{
												"box" : 												{
													"maxclass" : "outlet",
													"patching_rect" : [ 210.0, 350.0, 25.0, 25.0 ],
													"id" : "obj-39",
													"numinlets" : 1,
													"numoutlets" : 0,
													"comment" : ""
												}

											}
, 											{
												"box" : 												{
													"maxclass" : "outlet",
													"patching_rect" : [ 260.0, 350.0, 25.0, 25.0 ],
													"id" : "obj-40",
													"numinlets" : 1,
													"numoutlets" : 0,
													"comment" : ""
												}

											}
, 											{
												"box" : 												{
													"maxclass" : "outlet",
													"patching_rect" : [ 300.0, 350.0, 25.0, 25.0 ],
													"id" : "obj-41",
													"numinlets" : 1,
													"numoutlets" : 0,
													"comment" : ""
												}

											}
 ],
										"lines" : [ 											{
												"patchline" : 												{
													"source" : [ "obj-12", 0 ],
													"destination" : [ "obj-6", 0 ],
													"hidden" : 0,
													"midpoints" : [  ]
												}

											}
, 											{
												"patchline" : 												{
													"source" : [ "obj-14", 0 ],
													"destination" : [ "obj-25", 0 ],
													"hidden" : 0,
													"midpoints" : [  ]
												}

											}
, 											{
												"patchline" : 												{
													"source" : [ "obj-16", 0 ],
													"destination" : [ "obj-30", 0 ],
													"hidden" : 0,
													"midpoints" : [  ]
												}

											}
, 											{
												"patchline" : 												{
													"source" : [ "obj-17", 0 ],
													"destination" : [ "obj-32", 0 ],
													"hidden" : 0,
													"midpoints" : [  ]
												}

											}
, 											{
												"patchline" : 												{
													"source" : [ "obj-18", 0 ],
													"destination" : [ "obj-34", 0 ],
													"hidden" : 0,
													"midpoints" : [  ]
												}

											}
, 											{
												"patchline" : 												{
													"source" : [ "obj-24", 0 ],
													"destination" : [ "obj-38", 0 ],
													"hidden" : 0,
													"midpoints" : [  ]
												}

											}
, 											{
												"patchline" : 												{
													"source" : [ "obj-26", 0 ],
													"destination" : [ "obj-36", 0 ],
													"hidden" : 0,
													"midpoints" : [  ]
												}

											}
, 											{
												"patchline" : 												{
													"source" : [ "obj-6", 0 ],
													"destination" : [ "obj-31", 0 ],
													"hidden" : 0,
													"midpoints" : [  ]
												}

											}
, 											{
												"patchline" : 												{
													"source" : [ "obj-25", 0 ],
													"destination" : [ "obj-33", 0 ],
													"hidden" : 0,
													"midpoints" : [  ]
												}

											}
, 											{
												"patchline" : 												{
													"source" : [ "obj-30", 0 ],
													"destination" : [ "obj-35", 0 ],
													"hidden" : 0,
													"midpoints" : [  ]
												}

											}
, 											{
												"patchline" : 												{
													"source" : [ "obj-32", 0 ],
													"destination" : [ "obj-37", 0 ],
													"hidden" : 0,
													"midpoints" : [  ]
												}

											}
, 											{
												"patchline" : 												{
													"source" : [ "obj-34", 0 ],
													"destination" : [ "obj-39", 0 ],
													"hidden" : 0,
													"midpoints" : [  ]
												}

											}
, 											{
												"patchline" : 												{
													"source" : [ "obj-38", 0 ],
													"destination" : [ "obj-40", 0 ],
													"hidden" : 0,
													"midpoints" : [  ]
												}

											}
, 											{
												"patchline" : 												{
													"source" : [ "obj-36", 0 ],
													"destination" : [ "obj-41", 0 ],
													"hidden" : 0,
													"midpoints" : [  ]
												}

											}
 ]
									}
,
									"saved_object_attributes" : 									{
										"default_fontname" : "Arial",
										"default_fontsize" : 12.0,
										"fontname" : "Arial",
										"globalpatchername" : "",
										"fontface" : 0,
										"default_fontface" : 0,
										"fontsize" : 12.0
									}

								}

							}
, 							{
								"box" : 								{
									"maxclass" : "comment",
									"text" : "overtone/harmonics",
									"patching_rect" : [ 730.0, 370.0, 122.0, 20.0 ],
									"id" : "obj-11",
									"fontname" : "Arial",
									"numinlets" : 1,
									"fontsize" : 12.0,
									"numoutlets" : 0
								}

							}
, 							{
								"box" : 								{
									"maxclass" : "comment",
									"text" : "dodecaphon.",
									"patching_rect" : [ 622.0, 342.0, 88.0, 20.0 ],
									"id" : "obj-9",
									"fontname" : "Arial",
									"numinlets" : 1,
									"fontsize" : 12.0,
									"numoutlets" : 0
								}

							}
, 							{
								"box" : 								{
									"maxclass" : "comment",
									"text" : "whole tone",
									"patching_rect" : [ 530.0, 300.0, 78.0, 20.0 ],
									"id" : "obj-7",
									"fontname" : "Arial",
									"numinlets" : 1,
									"fontsize" : 12.0,
									"numoutlets" : 0
								}

							}
, 							{
								"box" : 								{
									"maxclass" : "message",
									"text" : "0 12 19 24 27 31 34 36 38 39 40 41",
									"patching_rect" : [ 524.0, 373.0, 202.0, 18.0 ],
									"outlettype" : [ "" ],
									"id" : "obj-3",
									"fontname" : "Arial",
									"numinlets" : 2,
									"fontsize" : 12.0,
									"numoutlets" : 1
								}

							}
, 							{
								"box" : 								{
									"maxclass" : "message",
									"text" : "0 1 2 3 4 5 6 7 8 9 10 11",
									"patching_rect" : [ 479.0, 343.0, 142.0, 18.0 ],
									"outlettype" : [ "" ],
									"id" : "obj-4",
									"fontname" : "Arial",
									"numinlets" : 2,
									"fontsize" : 12.0,
									"numoutlets" : 1
								}

							}
, 							{
								"box" : 								{
									"maxclass" : "message",
									"text" : "0 2 4 6 8 10",
									"patching_rect" : [ 450.0, 300.0, 74.0, 18.0 ],
									"outlettype" : [ "" ],
									"id" : "obj-2",
									"fontname" : "Arial",
									"numinlets" : 2,
									"fontsize" : 12.0,
									"numoutlets" : 1
								}

							}
, 							{
								"box" : 								{
									"maxclass" : "newobj",
									"text" : "sel 0 1 2 3 4 5 6 7 8 9 10 11 12 13 14 15 16 17 18 19 20 21 22 23",
									"patching_rect" : [ 75.0, 90.0, 1140.0, 20.0 ],
									"outlettype" : [ "bang", "bang", "bang", "bang", "bang", "bang", "bang", "bang", "bang", "bang", "bang", "bang", "bang", "bang", "bang", "bang", "bang", "bang", "bang", "bang", "bang", "bang", "bang", "bang", "" ],
									"id" : "obj-28",
									"fontname" : "Arial",
									"numinlets" : 1,
									"fontsize" : 12.0,
									"numoutlets" : 25
								}

							}
, 							{
								"box" : 								{
									"maxclass" : "inlet",
									"patching_rect" : [ 40.0, 30.0, 25.0, 25.0 ],
									"outlettype" : [ "int" ],
									"id" : "obj-20",
									"numinlets" : 0,
									"numoutlets" : 1,
									"comment" : ""
								}

							}
, 							{
								"box" : 								{
									"maxclass" : "outlet",
									"patching_rect" : [ 45.0, 630.0, 25.0, 25.0 ],
									"id" : "obj-22",
									"numinlets" : 1,
									"numoutlets" : 0,
									"comment" : ""
								}

							}
 ],
						"lines" : [ 							{
								"patchline" : 								{
									"source" : [ "obj-5", 6 ],
									"destination" : [ "obj-22", 0 ],
									"hidden" : 0,
									"midpoints" : [  ]
								}

							}
, 							{
								"patchline" : 								{
									"source" : [ "obj-5", 5 ],
									"destination" : [ "obj-22", 0 ],
									"hidden" : 0,
									"midpoints" : [  ]
								}

							}
, 							{
								"patchline" : 								{
									"source" : [ "obj-5", 4 ],
									"destination" : [ "obj-22", 0 ],
									"hidden" : 0,
									"midpoints" : [  ]
								}

							}
, 							{
								"patchline" : 								{
									"source" : [ "obj-5", 3 ],
									"destination" : [ "obj-22", 0 ],
									"hidden" : 0,
									"midpoints" : [  ]
								}

							}
, 							{
								"patchline" : 								{
									"source" : [ "obj-5", 2 ],
									"destination" : [ "obj-22", 0 ],
									"hidden" : 0,
									"midpoints" : [  ]
								}

							}
, 							{
								"patchline" : 								{
									"source" : [ "obj-5", 1 ],
									"destination" : [ "obj-22", 0 ],
									"hidden" : 0,
									"midpoints" : [  ]
								}

							}
, 							{
								"patchline" : 								{
									"source" : [ "obj-28", 23 ],
									"destination" : [ "obj-5", 6 ],
									"hidden" : 0,
									"midpoints" : [  ]
								}

							}
, 							{
								"patchline" : 								{
									"source" : [ "obj-28", 22 ],
									"destination" : [ "obj-5", 5 ],
									"hidden" : 0,
									"midpoints" : [  ]
								}

							}
, 							{
								"patchline" : 								{
									"source" : [ "obj-28", 21 ],
									"destination" : [ "obj-5", 4 ],
									"hidden" : 0,
									"midpoints" : [  ]
								}

							}
, 							{
								"patchline" : 								{
									"source" : [ "obj-28", 20 ],
									"destination" : [ "obj-5", 3 ],
									"hidden" : 0,
									"midpoints" : [  ]
								}

							}
, 							{
								"patchline" : 								{
									"source" : [ "obj-28", 19 ],
									"destination" : [ "obj-5", 2 ],
									"hidden" : 0,
									"midpoints" : [  ]
								}

							}
, 							{
								"patchline" : 								{
									"source" : [ "obj-28", 18 ],
									"destination" : [ "obj-5", 1 ],
									"hidden" : 0,
									"midpoints" : [  ]
								}

							}
, 							{
								"patchline" : 								{
									"source" : [ "obj-5", 0 ],
									"destination" : [ "obj-22", 0 ],
									"hidden" : 0,
									"midpoints" : [  ]
								}

							}
, 							{
								"patchline" : 								{
									"source" : [ "obj-28", 17 ],
									"destination" : [ "obj-5", 0 ],
									"hidden" : 0,
									"midpoints" : [  ]
								}

							}
, 							{
								"patchline" : 								{
									"source" : [ "obj-28", 0 ],
									"destination" : [ "obj-42", 0 ],
									"hidden" : 0,
									"midpoints" : [  ]
								}

							}
, 							{
								"patchline" : 								{
									"source" : [ "obj-28", 1 ],
									"destination" : [ "obj-42", 1 ],
									"hidden" : 0,
									"midpoints" : [  ]
								}

							}
, 							{
								"patchline" : 								{
									"source" : [ "obj-28", 2 ],
									"destination" : [ "obj-42", 2 ],
									"hidden" : 0,
									"midpoints" : [  ]
								}

							}
, 							{
								"patchline" : 								{
									"source" : [ "obj-28", 3 ],
									"destination" : [ "obj-42", 3 ],
									"hidden" : 0,
									"midpoints" : [  ]
								}

							}
, 							{
								"patchline" : 								{
									"source" : [ "obj-28", 4 ],
									"destination" : [ "obj-42", 4 ],
									"hidden" : 0,
									"midpoints" : [  ]
								}

							}
, 							{
								"patchline" : 								{
									"source" : [ "obj-28", 5 ],
									"destination" : [ "obj-42", 5 ],
									"hidden" : 0,
									"midpoints" : [  ]
								}

							}
, 							{
								"patchline" : 								{
									"source" : [ "obj-28", 6 ],
									"destination" : [ "obj-42", 6 ],
									"hidden" : 0,
									"midpoints" : [  ]
								}

							}
, 							{
								"patchline" : 								{
									"source" : [ "obj-28", 9 ],
									"destination" : [ "obj-3", 0 ],
									"hidden" : 0,
									"midpoints" : [  ]
								}

							}
, 							{
								"patchline" : 								{
									"source" : [ "obj-28", 8 ],
									"destination" : [ "obj-4", 0 ],
									"hidden" : 0,
									"midpoints" : [  ]
								}

							}
, 							{
								"patchline" : 								{
									"source" : [ "obj-28", 7 ],
									"destination" : [ "obj-2", 0 ],
									"hidden" : 0,
									"midpoints" : [  ]
								}

							}
, 							{
								"patchline" : 								{
									"source" : [ "obj-20", 0 ],
									"destination" : [ "obj-28", 0 ],
									"hidden" : 0,
									"midpoints" : [  ]
								}

							}
, 							{
								"patchline" : 								{
									"source" : [ "obj-28", 16 ],
									"destination" : [ "obj-72", 6 ],
									"hidden" : 0,
									"midpoints" : [  ]
								}

							}
, 							{
								"patchline" : 								{
									"source" : [ "obj-28", 15 ],
									"destination" : [ "obj-72", 5 ],
									"hidden" : 0,
									"midpoints" : [  ]
								}

							}
, 							{
								"patchline" : 								{
									"source" : [ "obj-28", 14 ],
									"destination" : [ "obj-72", 4 ],
									"hidden" : 0,
									"midpoints" : [  ]
								}

							}
, 							{
								"patchline" : 								{
									"source" : [ "obj-28", 13 ],
									"destination" : [ "obj-72", 3 ],
									"hidden" : 0,
									"midpoints" : [  ]
								}

							}
, 							{
								"patchline" : 								{
									"source" : [ "obj-28", 12 ],
									"destination" : [ "obj-72", 2 ],
									"hidden" : 0,
									"midpoints" : [  ]
								}

							}
, 							{
								"patchline" : 								{
									"source" : [ "obj-28", 11 ],
									"destination" : [ "obj-72", 1 ],
									"hidden" : 0,
									"midpoints" : [  ]
								}

							}
, 							{
								"patchline" : 								{
									"source" : [ "obj-28", 10 ],
									"destination" : [ "obj-72", 0 ],
									"hidden" : 0,
									"midpoints" : [  ]
								}

							}
, 							{
								"patchline" : 								{
									"source" : [ "obj-42", 0 ],
									"destination" : [ "obj-22", 0 ],
									"hidden" : 0,
									"midpoints" : [  ]
								}

							}
, 							{
								"patchline" : 								{
									"source" : [ "obj-42", 1 ],
									"destination" : [ "obj-22", 0 ],
									"hidden" : 0,
									"midpoints" : [  ]
								}

							}
, 							{
								"patchline" : 								{
									"source" : [ "obj-42", 2 ],
									"destination" : [ "obj-22", 0 ],
									"hidden" : 0,
									"midpoints" : [  ]
								}

							}
, 							{
								"patchline" : 								{
									"source" : [ "obj-42", 3 ],
									"destination" : [ "obj-22", 0 ],
									"hidden" : 0,
									"midpoints" : [  ]
								}

							}
, 							{
								"patchline" : 								{
									"source" : [ "obj-42", 4 ],
									"destination" : [ "obj-22", 0 ],
									"hidden" : 0,
									"midpoints" : [  ]
								}

							}
, 							{
								"patchline" : 								{
									"source" : [ "obj-42", 5 ],
									"destination" : [ "obj-22", 0 ],
									"hidden" : 0,
									"midpoints" : [  ]
								}

							}
, 							{
								"patchline" : 								{
									"source" : [ "obj-42", 6 ],
									"destination" : [ "obj-22", 0 ],
									"hidden" : 0,
									"midpoints" : [  ]
								}

							}
, 							{
								"patchline" : 								{
									"source" : [ "obj-2", 0 ],
									"destination" : [ "obj-22", 0 ],
									"hidden" : 0,
									"midpoints" : [  ]
								}

							}
, 							{
								"patchline" : 								{
									"source" : [ "obj-4", 0 ],
									"destination" : [ "obj-22", 0 ],
									"hidden" : 0,
									"midpoints" : [  ]
								}

							}
, 							{
								"patchline" : 								{
									"source" : [ "obj-3", 0 ],
									"destination" : [ "obj-22", 0 ],
									"hidden" : 0,
									"midpoints" : [  ]
								}

							}
, 							{
								"patchline" : 								{
									"source" : [ "obj-72", 0 ],
									"destination" : [ "obj-22", 0 ],
									"hidden" : 0,
									"midpoints" : [  ]
								}

							}
, 							{
								"patchline" : 								{
									"source" : [ "obj-72", 1 ],
									"destination" : [ "obj-22", 0 ],
									"hidden" : 0,
									"midpoints" : [  ]
								}

							}
, 							{
								"patchline" : 								{
									"source" : [ "obj-72", 2 ],
									"destination" : [ "obj-22", 0 ],
									"hidden" : 0,
									"midpoints" : [  ]
								}

							}
, 							{
								"patchline" : 								{
									"source" : [ "obj-72", 3 ],
									"destination" : [ "obj-22", 0 ],
									"hidden" : 0,
									"midpoints" : [  ]
								}

							}
, 							{
								"patchline" : 								{
									"source" : [ "obj-72", 4 ],
									"destination" : [ "obj-22", 0 ],
									"hidden" : 0,
									"midpoints" : [  ]
								}

							}
, 							{
								"patchline" : 								{
									"source" : [ "obj-72", 5 ],
									"destination" : [ "obj-22", 0 ],
									"hidden" : 0,
									"midpoints" : [  ]
								}

							}
, 							{
								"patchline" : 								{
									"source" : [ "obj-72", 6 ],
									"destination" : [ "obj-22", 0 ],
									"hidden" : 0,
									"midpoints" : [  ]
								}

							}
 ]
					}
,
					"saved_object_attributes" : 					{
						"default_fontname" : "Arial",
						"default_fontsize" : 12.0,
						"fontname" : "Arial",
						"globalpatchername" : "",
						"fontface" : 0,
						"default_fontface" : 0,
						"fontsize" : 12.0
					}

				}

			}
, 			{
				"box" : 				{
					"maxclass" : "newobj",
					"text" : "vexpr $i1 + $i2 @scalarmode 1",
					"patching_rect" : [ 20.0, 440.0, 176.0, 20.0 ],
					"outlettype" : [ "" ],
					"id" : "obj-2",
					"fontname" : "Arial",
					"numinlets" : 2,
					"fontsize" : 12.0,
					"numoutlets" : 1
				}

			}
, 			{
				"box" : 				{
					"maxclass" : "newobj",
					"text" : "t b f",
					"patching_rect" : [ 120.0, 190.0, 32.5, 20.0 ],
					"outlettype" : [ "bang", "float" ],
					"id" : "obj-17",
					"fontname" : "Arial",
					"numinlets" : 1,
					"fontsize" : 12.0,
					"numoutlets" : 2
				}

			}
, 			{
				"box" : 				{
					"maxclass" : "inlet",
					"patching_rect" : [ 10.0, 60.0, 25.0, 25.0 ],
					"outlettype" : [ "" ],
					"id" : "obj-4",
					"numinlets" : 0,
					"numoutlets" : 1,
					"comment" : "(re)generate"
				}

			}
, 			{
				"box" : 				{
					"maxclass" : "panel",
					"bgcolor" : [ 1.0, 1.0, 1.0, 1.0 ],
					"mode" : 1,
					"angle" : -90.0,
					"patching_rect" : [ 280.0, 230.0, 160.0, 30.0 ],
					"border" : 1,
					"presentation" : 1,
					"rounded" : 0,
					"grad1" : [ 0.329412, 0.34902, 0.4, 1.0 ],
					"id" : "obj-55",
					"grad2" : [ 0.176471, 0.188235, 0.219608, 1.0 ],
					"numinlets" : 1,
					"presentation_rect" : [ 0.0, 0.0, 250.0, 110.0 ],
					"numoutlets" : 0
				}

			}
 ],
		"lines" : [ 			{
				"patchline" : 				{
					"source" : [ "obj-26", 0 ],
					"destination" : [ "obj-19", 0 ],
					"hidden" : 0,
					"midpoints" : [  ]
				}

			}
, 			{
				"patchline" : 				{
					"source" : [ "obj-11", 0 ],
					"destination" : [ "obj-16", 0 ],
					"hidden" : 0,
					"midpoints" : [  ]
				}

			}
, 			{
				"patchline" : 				{
					"source" : [ "obj-8", 0 ],
					"destination" : [ "obj-26", 0 ],
					"hidden" : 0,
					"midpoints" : [  ]
				}

			}
, 			{
				"patchline" : 				{
					"source" : [ "obj-26", 0 ],
					"destination" : [ "obj-6", 0 ],
					"hidden" : 0,
					"midpoints" : [  ]
				}

			}
, 			{
				"patchline" : 				{
					"source" : [ "obj-16", 0 ],
					"destination" : [ "obj-14", 0 ],
					"hidden" : 0,
					"midpoints" : [  ]
				}

			}
, 			{
				"patchline" : 				{
					"source" : [ "obj-71", 0 ],
					"destination" : [ "obj-51", 0 ],
					"hidden" : 0,
					"midpoints" : [  ]
				}

			}
, 			{
				"patchline" : 				{
					"source" : [ "obj-4", 0 ],
					"destination" : [ "obj-12", 0 ],
					"hidden" : 0,
					"midpoints" : [  ]
				}

			}
, 			{
				"patchline" : 				{
					"source" : [ "obj-14", 0 ],
					"destination" : [ "obj-15", 0 ],
					"hidden" : 0,
					"midpoints" : [  ]
				}

			}
, 			{
				"patchline" : 				{
					"source" : [ "obj-54", 0 ],
					"destination" : [ "obj-56", 0 ],
					"hidden" : 0,
					"midpoints" : [  ]
				}

			}
, 			{
				"patchline" : 				{
					"source" : [ "obj-71", 0 ],
					"destination" : [ "obj-54", 0 ],
					"hidden" : 0,
					"midpoints" : [  ]
				}

			}
, 			{
				"patchline" : 				{
					"source" : [ "obj-56", 0 ],
					"destination" : [ "obj-57", 0 ],
					"hidden" : 0,
					"midpoints" : [  ]
				}

			}
, 			{
				"patchline" : 				{
					"source" : [ "obj-15", 1 ],
					"destination" : [ "obj-18", 1 ],
					"hidden" : 0,
					"midpoints" : [  ]
				}

			}
, 			{
				"patchline" : 				{
					"source" : [ "obj-24", 0 ],
					"destination" : [ "obj-100", 0 ],
					"hidden" : 0,
					"midpoints" : [  ]
				}

			}
, 			{
				"patchline" : 				{
					"source" : [ "obj-101", 0 ],
					"destination" : [ "obj-71", 0 ],
					"hidden" : 0,
					"midpoints" : [  ]
				}

			}
, 			{
				"patchline" : 				{
					"source" : [ "obj-101", 0 ],
					"destination" : [ "obj-10", 0 ],
					"hidden" : 0,
					"midpoints" : [  ]
				}

			}
, 			{
				"patchline" : 				{
					"source" : [ "obj-114", 0 ],
					"destination" : [ "obj-29", 0 ],
					"hidden" : 0,
					"midpoints" : [  ]
				}

			}
, 			{
				"patchline" : 				{
					"source" : [ "obj-6", 0 ],
					"destination" : [ "obj-24", 0 ],
					"hidden" : 0,
					"midpoints" : [  ]
				}

			}
, 			{
				"patchline" : 				{
					"source" : [ "obj-12", 0 ],
					"destination" : [ "obj-6", 0 ],
					"hidden" : 0,
					"midpoints" : [ 19.5, 188.5, 29.5, 188.5 ]
				}

			}
, 			{
				"patchline" : 				{
					"source" : [ "obj-114", 1 ],
					"destination" : [ "obj-9", 0 ],
					"hidden" : 0,
					"midpoints" : [  ]
				}

			}
, 			{
				"patchline" : 				{
					"source" : [ "obj-9", 0 ],
					"destination" : [ "obj-29", 0 ],
					"hidden" : 0,
					"midpoints" : [  ]
				}

			}
, 			{
				"patchline" : 				{
					"source" : [ "obj-17", 0 ],
					"destination" : [ "obj-100", 0 ],
					"hidden" : 0,
					"midpoints" : [ 129.5, 256.0, 29.5, 256.0 ]
				}

			}
, 			{
				"patchline" : 				{
					"source" : [ "obj-18", 0 ],
					"destination" : [ "obj-17", 0 ],
					"hidden" : 0,
					"midpoints" : [  ]
				}

			}
, 			{
				"patchline" : 				{
					"source" : [ "obj-100", 0 ],
					"destination" : [ "obj-114", 0 ],
					"hidden" : 0,
					"midpoints" : [  ]
				}

			}
, 			{
				"patchline" : 				{
					"source" : [ "obj-17", 1 ],
					"destination" : [ "obj-2", 1 ],
					"hidden" : 0,
					"midpoints" : [ 143.0, 243.0, 186.5, 243.0 ]
				}

			}
, 			{
				"patchline" : 				{
					"source" : [ "obj-100", 0 ],
					"destination" : [ "obj-2", 0 ],
					"hidden" : 0,
					"midpoints" : [  ]
				}

			}
, 			{
				"patchline" : 				{
					"source" : [ "obj-2", 0 ],
					"destination" : [ "obj-101", 0 ],
					"hidden" : 0,
					"midpoints" : [  ]
				}

			}
, 			{
				"patchline" : 				{
					"source" : [ "obj-99", 0 ],
					"destination" : [ "obj-2", 1 ],
					"hidden" : 0,
					"midpoints" : [  ]
				}

			}
, 			{
				"patchline" : 				{
					"source" : [ "obj-3", 0 ],
					"destination" : [ "obj-26", 0 ],
					"hidden" : 0,
					"midpoints" : [  ]
				}

			}
, 			{
				"patchline" : 				{
					"source" : [ "obj-114", 2 ],
					"destination" : [ "obj-29", 0 ],
					"hidden" : 0,
					"midpoints" : [  ]
				}

			}
, 			{
				"patchline" : 				{
					"source" : [ "obj-15", 0 ],
					"destination" : [ "obj-5", 0 ],
					"hidden" : 0,
					"midpoints" : [  ]
				}

			}
, 			{
				"patchline" : 				{
					"source" : [ "obj-5", 0 ],
					"destination" : [ "obj-18", 0 ],
					"hidden" : 0,
					"midpoints" : [  ]
				}

			}
, 			{
				"patchline" : 				{
					"source" : [ "obj-13", 0 ],
					"destination" : [ "obj-5", 0 ],
					"hidden" : 0,
					"midpoints" : [  ]
				}

			}
, 			{
				"patchline" : 				{
					"source" : [ "obj-5", 0 ],
					"destination" : [ "obj-21", 0 ],
					"hidden" : 0,
					"midpoints" : [  ]
				}

			}
 ]
	}

}
