{
	"patcher" : 	{
		"fileversion" : 1,
		"appversion" : 		{
			"major" : 5,
			"minor" : 1,
			"revision" : 9
		}
,
		"rect" : [ 25.0, 69.0, 1191.0, 726.0 ],
		"bgcolor" : [ 1.0, 1.0, 1.0, 0.0 ],
		"bglocked" : 0,
		"defrect" : [ 25.0, 69.0, 1191.0, 726.0 ],
		"openrect" : [ 0.0, 0.0, 0.0, 0.0 ],
		"openinpresentation" : 1,
		"default_fontsize" : 12.0,
		"default_fontface" : 0,
		"default_fontname" : "Arial",
		"gridonopen" : 0,
		"gridsize" : [ 10.0, 10.0 ],
		"gridsnaponopen" : 0,
		"toolbarvisible" : 1,
		"boxanimatetime" : 0,
		"imprint" : 0,
		"enablehscroll" : 1,
		"enablevscroll" : 1,
		"devicewidth" : 0.0,
		"boxes" : [ 			{
				"box" : 				{
					"maxclass" : "comment",
					"frgb" : [ 0.866667, 0.866667, 0.866667, 1.0 ],
					"patching_rect" : [ 460.0, 620.0, 60.0, 20.0 ],
					"presentation" : 1,
					"textcolor" : [ 0.866667, 0.866667, 0.866667, 1.0 ],
					"id" : "obj-5",
					"fontname" : "Arial",
					"numinlets" : 1,
					"presentation_rect" : [ 110.0, 60.0, 100.0, 20.0 ],
					"fontsize" : 12.0,
					"numoutlets" : 0
				}

			}
, 			{
				"box" : 				{
					"maxclass" : "newobj",
					"text" : "prepend set",
					"patching_rect" : [ 448.0, 583.0, 74.0, 20.0 ],
					"outlettype" : [ "" ],
					"id" : "obj-4",
					"fontname" : "Arial",
					"numinlets" : 1,
					"fontsize" : 12.0,
					"numoutlets" : 1
				}

			}
, 			{
				"box" : 				{
					"maxclass" : "newobj",
					"text" : "t 1",
					"patching_rect" : [ 750.0, 70.0, 24.0, 20.0 ],
					"outlettype" : [ "int" ],
					"id" : "obj-3",
					"fontname" : "Arial",
					"numinlets" : 1,
					"fontsize" : 12.0,
					"numoutlets" : 1
				}

			}
, 			{
				"box" : 				{
					"maxclass" : "inlet",
					"patching_rect" : [ 750.0, 30.0, 25.0, 25.0 ],
					"outlettype" : [ "" ],
					"id" : "obj-2",
					"numinlets" : 0,
					"numoutlets" : 1,
					"comment" : "reset"
				}

			}
, 			{
				"box" : 				{
					"maxclass" : "newobj",
					"text" : "t i i",
					"patching_rect" : [ 634.0, 153.0, 32.5, 20.0 ],
					"outlettype" : [ "int", "int" ],
					"id" : "obj-96",
					"fontname" : "Arial",
					"numinlets" : 1,
					"fontsize" : 12.0,
					"numoutlets" : 2
				}

			}
, 			{
				"box" : 				{
					"maxclass" : "newobj",
					"text" : "- 1",
					"patching_rect" : [ 553.0, 154.0, 32.5, 20.0 ],
					"outlettype" : [ "int" ],
					"id" : "obj-95",
					"fontname" : "Arial",
					"numinlets" : 2,
					"fontsize" : 12.0,
					"numoutlets" : 1
				}

			}
, 			{
				"box" : 				{
					"maxclass" : "umenu",
					"arrowframe" : 0,
					"items" : [ "chord", ",", "progression" ],
					"bgcolor" : [ 0.266667, 0.266667, 0.266667, 1.0 ],
					"arrowlink" : 0,
					"bgcolor2" : [ 0.176471, 0.176471, 0.176471, 1.0 ],
					"types" : [  ],
					"patching_rect" : [ 435.0, 247.0, 79.0, 19.0 ],
					"outlettype" : [ "int", "", "" ],
					"presentation" : 1,
					"textcolor2" : [ 1.0, 1.0, 1.0, 1.0 ],
					"rounded" : 1,
					"textcolor" : [ 1.0, 1.0, 1.0, 1.0 ],
					"hltcolor" : [ 0.905882, 0.905882, 0.905882, 1.0 ],
					"id" : "obj-93",
					"fontname" : "Helvetica Neue",
					"arrow" : 0,
					"framecolor" : [ 0.015686, 0.015686, 0.015686, 1.0 ],
					"ignoreclick" : 1,
					"numinlets" : 1,
					"fontface" : 1,
					"presentation_rect" : [ 110.0, 20.0, 89.0, 19.0 ],
					"fontsize" : 10.0,
					"togcolor" : [ 1.0, 1.0, 1.0, 1.0 ],
					"discolor" : [ 0.176471, 0.176471, 0.176471, 1.0 ],
					"align" : 1,
					"numoutlets" : 3
				}

			}
, 			{
				"box" : 				{
					"maxclass" : "newobj",
					"text" : "t 0",
					"patching_rect" : [ 1020.0, 610.0, 24.0, 20.0 ],
					"outlettype" : [ "int" ],
					"id" : "obj-86",
					"fontname" : "Arial",
					"numinlets" : 1,
					"fontsize" : 12.0,
					"numoutlets" : 1
				}

			}
, 			{
				"box" : 				{
					"maxclass" : "newobj",
					"text" : "t 4",
					"patching_rect" : [ 990.0, 610.0, 24.0, 20.0 ],
					"outlettype" : [ "int" ],
					"id" : "obj-85",
					"fontname" : "Arial",
					"numinlets" : 1,
					"fontsize" : 12.0,
					"numoutlets" : 1
				}

			}
, 			{
				"box" : 				{
					"maxclass" : "newobj",
					"text" : "t 8",
					"patching_rect" : [ 960.0, 610.0, 24.0, 20.0 ],
					"outlettype" : [ "int" ],
					"id" : "obj-84",
					"fontname" : "Arial",
					"numinlets" : 1,
					"fontsize" : 12.0,
					"numoutlets" : 1
				}

			}
, 			{
				"box" : 				{
					"maxclass" : "outlet",
					"patching_rect" : [ 960.0, 650.0, 25.0, 25.0 ],
					"id" : "obj-79",
					"numinlets" : 1,
					"numoutlets" : 0,
					"comment" : "scale-shift (harmony modulation)"
				}

			}
, 			{
				"box" : 				{
					"maxclass" : "outlet",
					"patching_rect" : [ 750.0, 637.0, 25.0, 25.0 ],
					"id" : "obj-78",
					"numinlets" : 1,
					"numoutlets" : 0,
					"comment" : "progression gate"
				}

			}
, 			{
				"box" : 				{
					"maxclass" : "newobj",
					"text" : "sel 1 2 3",
					"patching_rect" : [ 960.0, 570.0, 59.5, 20.0 ],
					"outlettype" : [ "bang", "bang", "bang", "" ],
					"id" : "obj-75",
					"fontname" : "Arial",
					"numinlets" : 1,
					"fontsize" : 12.0,
					"numoutlets" : 4
				}

			}
, 			{
				"box" : 				{
					"maxclass" : "newobj",
					"text" : "counter 0 1 3",
					"patching_rect" : [ 960.0, 540.0, 81.0, 20.0 ],
					"outlettype" : [ "int", "", "", "int" ],
					"id" : "obj-74",
					"fontname" : "Arial",
					"numinlets" : 5,
					"fontsize" : 12.0,
					"numoutlets" : 4
				}

			}
, 			{
				"box" : 				{
					"maxclass" : "newobj",
					"text" : "t 0",
					"patching_rect" : [ 1040.0, 450.0, 24.0, 20.0 ],
					"outlettype" : [ "int" ],
					"id" : "obj-73",
					"fontname" : "Arial",
					"numinlets" : 1,
					"fontsize" : 12.0,
					"numoutlets" : 1
				}

			}
, 			{
				"box" : 				{
					"maxclass" : "newobj",
					"text" : "t 1 b",
					"patching_rect" : [ 960.0, 450.0, 50.0, 20.0 ],
					"outlettype" : [ "int", "bang" ],
					"id" : "obj-72",
					"fontname" : "Arial",
					"numinlets" : 1,
					"fontsize" : 12.0,
					"numoutlets" : 2
				}

			}
, 			{
				"box" : 				{
					"maxclass" : "newobj",
					"text" : "sel 2",
					"patching_rect" : [ 960.0, 420.0, 36.0, 20.0 ],
					"outlettype" : [ "bang", "" ],
					"id" : "obj-71",
					"fontname" : "Arial",
					"numinlets" : 2,
					"fontsize" : 12.0,
					"numoutlets" : 2
				}

			}
, 			{
				"box" : 				{
					"maxclass" : "newobj",
					"text" : "t i i",
					"patching_rect" : [ 914.0, 353.0, 32.5, 20.0 ],
					"outlettype" : [ "int", "int" ],
					"id" : "obj-70",
					"fontname" : "Arial",
					"numinlets" : 1,
					"fontsize" : 12.0,
					"numoutlets" : 2
				}

			}
, 			{
				"box" : 				{
					"maxclass" : "newobj",
					"text" : "gate 1 0",
					"patching_rect" : [ 960.0, 480.0, 54.0, 20.0 ],
					"outlettype" : [ "" ],
					"id" : "obj-69",
					"fontname" : "Arial",
					"numinlets" : 2,
					"fontsize" : 12.0,
					"numoutlets" : 1
				}

			}
, 			{
				"box" : 				{
					"maxclass" : "newobj",
					"text" : "sel (II II",
					"patching_rect" : [ 960.0, 510.0, 50.0, 20.0 ],
					"outlettype" : [ "bang", "bang", "" ],
					"id" : "obj-68",
					"fontname" : "Arial",
					"numinlets" : 1,
					"fontsize" : 12.0,
					"numoutlets" : 3
				}

			}
, 			{
				"box" : 				{
					"maxclass" : "newobj",
					"text" : "t l b l",
					"patching_rect" : [ 794.0, 423.0, 46.0, 20.0 ],
					"outlettype" : [ "", "bang", "" ],
					"id" : "obj-65",
					"fontname" : "Arial",
					"numinlets" : 1,
					"fontsize" : 12.0,
					"numoutlets" : 3
				}

			}
, 			{
				"box" : 				{
					"maxclass" : "newobj",
					"text" : "t 1",
					"patching_rect" : [ 634.0, 443.0, 24.0, 20.0 ],
					"outlettype" : [ "int" ],
					"id" : "obj-54",
					"fontname" : "Arial",
					"numinlets" : 1,
					"fontsize" : 12.0,
					"numoutlets" : 1
				}

			}
, 			{
				"box" : 				{
					"maxclass" : "newobj",
					"text" : "sel 10",
					"patching_rect" : [ 634.0, 413.0, 43.0, 20.0 ],
					"outlettype" : [ "bang", "" ],
					"id" : "obj-53",
					"fontname" : "Arial",
					"numinlets" : 2,
					"fontsize" : 12.0,
					"numoutlets" : 2
				}

			}
, 			{
				"box" : 				{
					"maxclass" : "newobj",
					"text" : "zl len",
					"patching_rect" : [ 820.0, 149.0, 39.0, 20.0 ],
					"outlettype" : [ "", "" ],
					"id" : "obj-48",
					"fontname" : "Arial",
					"numinlets" : 2,
					"fontsize" : 12.0,
					"numoutlets" : 2
				}

			}
, 			{
				"box" : 				{
					"maxclass" : "newobj",
					"text" : "counter 0 1 10",
					"patching_rect" : [ 634.0, 383.0, 87.0, 20.0 ],
					"outlettype" : [ "int", "", "", "int" ],
					"id" : "obj-47",
					"fontname" : "Arial",
					"numinlets" : 5,
					"fontsize" : 12.0,
					"numoutlets" : 4
				}

			}
, 			{
				"box" : 				{
					"maxclass" : "newobj",
					"text" : "zl slice 1",
					"patching_rect" : [ 794.0, 393.0, 57.0, 20.0 ],
					"outlettype" : [ "", "" ],
					"id" : "obj-46",
					"fontname" : "Arial",
					"numinlets" : 2,
					"fontsize" : 12.0,
					"numoutlets" : 2
				}

			}
, 			{
				"box" : 				{
					"maxclass" : "newobj",
					"text" : "zl reg II V I",
					"patching_rect" : [ 794.0, 363.0, 80.0, 20.0 ],
					"outlettype" : [ "", "" ],
					"id" : "obj-45",
					"fontname" : "Arial",
					"numinlets" : 2,
					"fontsize" : 12.0,
					"numoutlets" : 2
				}

			}
, 			{
				"box" : 				{
					"maxclass" : "newobj",
					"text" : "sel I V IV II VI III VII (II V)",
					"patching_rect" : [ 20.0, 440.0, 648.0, 20.0 ],
					"outlettype" : [ "bang", "bang", "bang", "bang", "bang", "bang", "bang", "bang", "bang", "" ],
					"id" : "obj-44",
					"fontname" : "Arial",
					"numinlets" : 1,
					"fontsize" : 12.0,
					"numoutlets" : 10
				}

			}
, 			{
				"box" : 				{
					"maxclass" : "newobj",
					"text" : "t b b b",
					"patching_rect" : [ 794.0, 303.0, 59.0, 20.0 ],
					"outlettype" : [ "bang", "bang", "bang" ],
					"id" : "obj-43",
					"fontname" : "Arial",
					"numinlets" : 1,
					"fontsize" : 12.0,
					"numoutlets" : 3
				}

			}
, 			{
				"box" : 				{
					"maxclass" : "newobj",
					"text" : "random 6",
					"patching_rect" : [ 814.0, 333.0, 70.0, 20.0 ],
					"outlettype" : [ "int" ],
					"id" : "obj-42",
					"fontname" : "Arial",
					"numinlets" : 2,
					"fontsize" : 12.0,
					"numoutlets" : 1
				}

			}
, 			{
				"box" : 				{
					"maxclass" : "umenu",
					"items" : [ "II", "V", "I", "III", "IV", "V", "I", ",", "IV", "V", "I", ",", "(II", "V)", "(II", "V)", "II", "V", "I", ",", "VI", "II", "V", "I", ",", "I", "VI", "IV", "V", ",", "I", "I", "I", "I", "IV", "IV", "I", "I", "V", "V", "I", "I" ],
					"bgcolor" : [ 0.266667, 0.266667, 0.266667, 1.0 ],
					"bgcolor2" : [ 0.176471, 0.176471, 0.176471, 1.0 ],
					"types" : [  ],
					"patching_rect" : [ 815.0, 93.0, 79.0, 19.0 ],
					"outlettype" : [ "int", "", "" ],
					"presentation" : 1,
					"textcolor2" : [ 1.0, 1.0, 1.0, 1.0 ],
					"rounded" : 1,
					"textcolor" : [ 1.0, 1.0, 1.0, 1.0 ],
					"hltcolor" : [ 0.905882, 0.905882, 0.905882, 1.0 ],
					"id" : "obj-41",
					"fontname" : "Helvetica Neue",
					"framecolor" : [ 0.015686, 0.015686, 0.015686, 1.0 ],
					"numinlets" : 1,
					"fontface" : 1,
					"presentation_rect" : [ 110.0, 40.0, 89.0, 19.0 ],
					"fontsize" : 10.0,
					"togcolor" : [ 1.0, 1.0, 1.0, 1.0 ],
					"discolor" : [ 0.176471, 0.176471, 0.176471, 1.0 ],
					"align" : 1,
					"numoutlets" : 3
				}

			}
, 			{
				"box" : 				{
					"maxclass" : "newobj",
					"text" : "t b",
					"patching_rect" : [ 674.0, 273.0, 24.0, 20.0 ],
					"outlettype" : [ "bang" ],
					"id" : "obj-40",
					"fontname" : "Arial",
					"numinlets" : 1,
					"fontsize" : 12.0,
					"numoutlets" : 1
				}

			}
, 			{
				"box" : 				{
					"maxclass" : "newobj",
					"text" : "t b 2 0",
					"patching_rect" : [ 634.0, 273.0, 46.0, 20.0 ],
					"outlettype" : [ "bang", "int", "int" ],
					"id" : "obj-39",
					"fontname" : "Arial",
					"numinlets" : 1,
					"fontsize" : 12.0,
					"numoutlets" : 3
				}

			}
, 			{
				"box" : 				{
					"maxclass" : "newobj",
					"text" : "sel 0",
					"patching_rect" : [ 634.0, 243.0, 59.0, 20.0 ],
					"outlettype" : [ "bang", "" ],
					"id" : "obj-38",
					"fontname" : "Arial",
					"numinlets" : 2,
					"fontsize" : 12.0,
					"numoutlets" : 2
				}

			}
, 			{
				"box" : 				{
					"maxclass" : "newobj",
					"text" : "random 3",
					"patching_rect" : [ 634.0, 213.0, 61.0, 20.0 ],
					"outlettype" : [ "int" ],
					"id" : "obj-37",
					"fontname" : "Arial",
					"numinlets" : 2,
					"fontsize" : 12.0,
					"numoutlets" : 1
				}

			}
, 			{
				"box" : 				{
					"maxclass" : "newobj",
					"text" : "gate 2 1",
					"patching_rect" : [ 634.0, 183.0, 55.0, 20.0 ],
					"outlettype" : [ "", "" ],
					"id" : "obj-36",
					"fontname" : "Arial",
					"numinlets" : 2,
					"fontsize" : 12.0,
					"numoutlets" : 2
				}

			}
, 			{
				"box" : 				{
					"maxclass" : "comment",
					"text" : "progressionsteile\nII V I\nIII IV V I\nIV V I\n(II V) (II V) II V I\nVI II V I\nI vi IV V (50s)\nI I I I IV IV I I V V I I (blues)",
					"linecount" : 8,
					"patching_rect" : [ 245.0, 25.0, 236.0, 117.0 ],
					"id" : "obj-1",
					"fontname" : "Arial",
					"numinlets" : 1,
					"fontsize" : 12.0,
					"numoutlets" : 0
				}

			}
, 			{
				"box" : 				{
					"maxclass" : "newobj",
					"text" : "t 0",
					"patching_rect" : [ 20.0, 460.0, 24.0, 20.0 ],
					"outlettype" : [ "int" ],
					"id" : "obj-9",
					"fontname" : "Arial",
					"numinlets" : 1,
					"fontsize" : 12.0,
					"numoutlets" : 1
				}

			}
, 			{
				"box" : 				{
					"maxclass" : "newobj",
					"text" : "t 4",
					"patching_rect" : [ 90.0, 460.0, 24.0, 20.0 ],
					"outlettype" : [ "int" ],
					"id" : "obj-14",
					"fontname" : "Arial",
					"numinlets" : 1,
					"fontsize" : 12.0,
					"numoutlets" : 1
				}

			}
, 			{
				"box" : 				{
					"maxclass" : "newobj",
					"text" : "t 3",
					"patching_rect" : [ 160.0, 460.0, 24.0, 20.0 ],
					"outlettype" : [ "int" ],
					"id" : "obj-15",
					"fontname" : "Arial",
					"numinlets" : 1,
					"fontsize" : 12.0,
					"numoutlets" : 1
				}

			}
, 			{
				"box" : 				{
					"maxclass" : "newobj",
					"text" : "t 1",
					"patching_rect" : [ 230.0, 460.0, 24.0, 20.0 ],
					"outlettype" : [ "int" ],
					"id" : "obj-31",
					"fontname" : "Arial",
					"numinlets" : 1,
					"fontsize" : 12.0,
					"numoutlets" : 1
				}

			}
, 			{
				"box" : 				{
					"maxclass" : "newobj",
					"text" : "t 5",
					"patching_rect" : [ 300.0, 460.0, 24.0, 20.0 ],
					"outlettype" : [ "int" ],
					"id" : "obj-17",
					"fontname" : "Arial",
					"numinlets" : 1,
					"fontsize" : 12.0,
					"numoutlets" : 1
				}

			}
, 			{
				"box" : 				{
					"maxclass" : "newobj",
					"text" : "t 2",
					"patching_rect" : [ 370.0, 460.0, 24.0, 20.0 ],
					"outlettype" : [ "int" ],
					"id" : "obj-18",
					"fontname" : "Arial",
					"numinlets" : 1,
					"fontsize" : 12.0,
					"numoutlets" : 1
				}

			}
, 			{
				"box" : 				{
					"maxclass" : "newobj",
					"text" : "t 6",
					"patching_rect" : [ 440.0, 460.0, 24.0, 20.0 ],
					"outlettype" : [ "int" ],
					"id" : "obj-23",
					"fontname" : "Arial",
					"numinlets" : 1,
					"fontsize" : 12.0,
					"numoutlets" : 1
				}

			}
, 			{
				"box" : 				{
					"maxclass" : "newobj",
					"text" : "t I",
					"patching_rect" : [ 20.0, 410.0, 21.0, 20.0 ],
					"outlettype" : [ "I" ],
					"id" : "obj-25",
					"fontname" : "Arial",
					"numinlets" : 1,
					"fontsize" : 12.0,
					"numoutlets" : 1
				}

			}
, 			{
				"box" : 				{
					"maxclass" : "newobj",
					"text" : "t V",
					"patching_rect" : [ 90.0, 420.0, 25.0, 20.0 ],
					"outlettype" : [ "V" ],
					"id" : "obj-49",
					"fontname" : "Arial",
					"numinlets" : 1,
					"fontsize" : 12.0,
					"numoutlets" : 1
				}

			}
, 			{
				"box" : 				{
					"maxclass" : "newobj",
					"text" : "t IV",
					"patching_rect" : [ 160.0, 420.0, 29.0, 20.0 ],
					"outlettype" : [ "IV" ],
					"id" : "obj-50",
					"fontname" : "Arial",
					"numinlets" : 1,
					"fontsize" : 12.0,
					"numoutlets" : 1
				}

			}
, 			{
				"box" : 				{
					"maxclass" : "newobj",
					"text" : "t II",
					"patching_rect" : [ 230.0, 420.0, 24.0, 20.0 ],
					"outlettype" : [ "II" ],
					"id" : "obj-51",
					"fontname" : "Arial",
					"numinlets" : 1,
					"fontsize" : 12.0,
					"numoutlets" : 1
				}

			}
, 			{
				"box" : 				{
					"maxclass" : "newobj",
					"text" : "t VI",
					"patching_rect" : [ 300.0, 420.0, 29.0, 20.0 ],
					"outlettype" : [ "VI" ],
					"id" : "obj-52",
					"fontname" : "Arial",
					"numinlets" : 1,
					"fontsize" : 12.0,
					"numoutlets" : 1
				}

			}
, 			{
				"box" : 				{
					"maxclass" : "newobj",
					"text" : "t III",
					"patching_rect" : [ 370.0, 420.0, 27.0, 20.0 ],
					"outlettype" : [ "III" ],
					"id" : "obj-56",
					"fontname" : "Arial",
					"numinlets" : 1,
					"fontsize" : 12.0,
					"numoutlets" : 1
				}

			}
, 			{
				"box" : 				{
					"maxclass" : "newobj",
					"text" : "t VII",
					"patching_rect" : [ 440.0, 420.0, 32.0, 20.0 ],
					"outlettype" : [ "VII" ],
					"id" : "obj-57",
					"fontname" : "Arial",
					"numinlets" : 1,
					"fontsize" : 12.0,
					"numoutlets" : 1
				}

			}
, 			{
				"box" : 				{
					"maxclass" : "newobj",
					"text" : "i",
					"patching_rect" : [ 280.0, 620.0, 32.5, 20.0 ],
					"outlettype" : [ "int" ],
					"id" : "obj-58",
					"fontname" : "Arial",
					"numinlets" : 2,
					"fontsize" : 12.0,
					"numoutlets" : 1
				}

			}
, 			{
				"box" : 				{
					"maxclass" : "inlet",
					"patching_rect" : [ 670.0, 30.0, 25.0, 25.0 ],
					"outlettype" : [ "" ],
					"id" : "obj-59",
					"numinlets" : 0,
					"numoutlets" : 1,
					"comment" : "trigger to get next function"
				}

			}
, 			{
				"box" : 				{
					"maxclass" : "newobj",
					"text" : "t NIX",
					"patching_rect" : [ 504.0, 423.0, 37.0, 20.0 ],
					"outlettype" : [ "NIX" ],
					"id" : "obj-60",
					"fontname" : "Arial",
					"numinlets" : 1,
					"fontsize" : 12.0,
					"numoutlets" : 1
				}

			}
, 			{
				"box" : 				{
					"maxclass" : "newobj",
					"text" : "+ 1",
					"patching_rect" : [ 20.0, 340.0, 32.5, 20.0 ],
					"outlettype" : [ "int" ],
					"id" : "obj-61",
					"fontname" : "Arial",
					"numinlets" : 2,
					"fontsize" : 12.0,
					"numoutlets" : 1
				}

			}
, 			{
				"box" : 				{
					"maxclass" : "comment",
					"text" : "VII",
					"patching_rect" : [ 440.0, 360.0, 23.0, 20.0 ],
					"id" : "obj-62",
					"fontname" : "Arial",
					"numinlets" : 1,
					"fontsize" : 12.0,
					"numoutlets" : 0
				}

			}
, 			{
				"box" : 				{
					"maxclass" : "comment",
					"text" : "VI",
					"patching_rect" : [ 300.0, 360.0, 23.0, 20.0 ],
					"id" : "obj-63",
					"fontname" : "Arial",
					"numinlets" : 1,
					"fontsize" : 12.0,
					"numoutlets" : 0
				}

			}
, 			{
				"box" : 				{
					"maxclass" : "comment",
					"text" : "III",
					"patching_rect" : [ 370.0, 360.0, 23.0, 20.0 ],
					"id" : "obj-64",
					"fontname" : "Arial",
					"numinlets" : 1,
					"fontsize" : 12.0,
					"numoutlets" : 0
				}

			}
, 			{
				"box" : 				{
					"maxclass" : "comment",
					"text" : "II",
					"patching_rect" : [ 230.0, 360.0, 23.0, 20.0 ],
					"id" : "obj-66",
					"fontname" : "Arial",
					"numinlets" : 1,
					"fontsize" : 12.0,
					"numoutlets" : 0
				}

			}
, 			{
				"box" : 				{
					"maxclass" : "comment",
					"text" : "IV",
					"patching_rect" : [ 160.0, 360.0, 23.0, 20.0 ],
					"id" : "obj-67",
					"fontname" : "Arial",
					"numinlets" : 1,
					"fontsize" : 12.0,
					"numoutlets" : 0
				}

			}
, 			{
				"box" : 				{
					"maxclass" : "comment",
					"text" : "V",
					"patching_rect" : [ 90.0, 360.0, 18.0, 20.0 ],
					"id" : "obj-76",
					"fontname" : "Arial",
					"numinlets" : 1,
					"fontsize" : 12.0,
					"numoutlets" : 0
				}

			}
, 			{
				"box" : 				{
					"maxclass" : "comment",
					"text" : "I",
					"patching_rect" : [ 20.0, 360.0, 18.0, 20.0 ],
					"id" : "obj-77",
					"fontname" : "Arial",
					"numinlets" : 1,
					"fontsize" : 12.0,
					"numoutlets" : 0
				}

			}
, 			{
				"box" : 				{
					"maxclass" : "newobj",
					"text" : "split 105 110",
					"patching_rect" : [ 440.0, 380.0, 78.0, 20.0 ],
					"outlettype" : [ "int", "int" ],
					"id" : "obj-80",
					"fontname" : "Arial",
					"numinlets" : 3,
					"fontsize" : 12.0,
					"numoutlets" : 2
				}

			}
, 			{
				"box" : 				{
					"maxclass" : "newobj",
					"text" : "split 96 104",
					"patching_rect" : [ 370.0, 380.0, 72.0, 20.0 ],
					"outlettype" : [ "int", "int" ],
					"id" : "obj-81",
					"fontname" : "Arial",
					"numinlets" : 3,
					"fontsize" : 12.0,
					"numoutlets" : 2
				}

			}
, 			{
				"box" : 				{
					"maxclass" : "newobj",
					"text" : "split 89 97",
					"patching_rect" : [ 300.0, 380.0, 65.0, 20.0 ],
					"outlettype" : [ "int", "int" ],
					"id" : "obj-82",
					"fontname" : "Arial",
					"numinlets" : 3,
					"fontsize" : 12.0,
					"numoutlets" : 2
				}

			}
, 			{
				"box" : 				{
					"maxclass" : "newobj",
					"text" : "split 75 88",
					"patching_rect" : [ 230.0, 380.0, 65.0, 20.0 ],
					"outlettype" : [ "int", "int" ],
					"id" : "obj-83",
					"fontname" : "Arial",
					"numinlets" : 3,
					"fontsize" : 12.0,
					"numoutlets" : 2
				}

			}
, 			{
				"box" : 				{
					"maxclass" : "newobj",
					"text" : "split 61 74",
					"patching_rect" : [ 160.0, 380.0, 65.0, 20.0 ],
					"outlettype" : [ "int", "int" ],
					"id" : "obj-87",
					"fontname" : "Arial",
					"numinlets" : 3,
					"fontsize" : 12.0,
					"numoutlets" : 2
				}

			}
, 			{
				"box" : 				{
					"maxclass" : "newobj",
					"text" : "split 31 60",
					"patching_rect" : [ 90.0, 380.0, 65.0, 20.0 ],
					"outlettype" : [ "int", "int" ],
					"id" : "obj-88",
					"fontname" : "Arial",
					"numinlets" : 3,
					"fontsize" : 12.0,
					"numoutlets" : 2
				}

			}
, 			{
				"box" : 				{
					"maxclass" : "newobj",
					"text" : "split 1 30",
					"patching_rect" : [ 20.0, 380.0, 59.0, 20.0 ],
					"outlettype" : [ "int", "int" ],
					"id" : "obj-89",
					"fontname" : "Arial",
					"numinlets" : 3,
					"fontsize" : 12.0,
					"numoutlets" : 2
				}

			}
, 			{
				"box" : 				{
					"maxclass" : "newobj",
					"text" : "random 110",
					"patching_rect" : [ 20.0, 310.0, 74.0, 20.0 ],
					"outlettype" : [ "int" ],
					"id" : "obj-90",
					"fontname" : "Arial",
					"numinlets" : 2,
					"fontsize" : 12.0,
					"numoutlets" : 1
				}

			}
, 			{
				"box" : 				{
					"maxclass" : "comment",
					"text" : "(re)generate",
					"linecount" : 2,
					"frgb" : [ 0.866667, 0.866667, 0.866667, 1.0 ],
					"patching_rect" : [ 93.0, 117.0, 60.0, 34.0 ],
					"presentation" : 1,
					"textcolor" : [ 0.866667, 0.866667, 0.866667, 1.0 ],
					"id" : "obj-35",
					"fontname" : "Arial",
					"numinlets" : 1,
					"presentation_rect" : [ 10.0, 80.0, 100.0, 20.0 ],
					"fontsize" : 12.0,
					"numoutlets" : 0
				}

			}
, 			{
				"box" : 				{
					"maxclass" : "comment",
					"text" : "step",
					"frgb" : [ 0.866667, 0.866667, 0.866667, 1.0 ],
					"patching_rect" : [ 78.0, 102.0, 60.0, 20.0 ],
					"presentation" : 1,
					"textcolor" : [ 0.866667, 0.866667, 0.866667, 1.0 ],
					"id" : "obj-34",
					"fontname" : "Arial",
					"numinlets" : 1,
					"presentation_rect" : [ 10.0, 60.0, 100.0, 20.0 ],
					"fontsize" : 12.0,
					"numoutlets" : 0
				}

			}
, 			{
				"box" : 				{
					"maxclass" : "comment",
					"text" : "mode",
					"frgb" : [ 0.866667, 0.866667, 0.866667, 1.0 ],
					"patching_rect" : [ 63.0, 87.0, 60.0, 20.0 ],
					"presentation" : 1,
					"textcolor" : [ 0.866667, 0.866667, 0.866667, 1.0 ],
					"id" : "obj-33",
					"fontname" : "Arial",
					"numinlets" : 1,
					"presentation_rect" : [ 10.0, 20.0, 100.0, 20.0 ],
					"fontsize" : 12.0,
					"numoutlets" : 0
				}

			}
, 			{
				"box" : 				{
					"maxclass" : "comment",
					"text" : "harmony maker",
					"frgb" : [ 1.0, 1.0, 1.0, 1.0 ],
					"patching_rect" : [ 27.0, 43.0, 205.0, 20.0 ],
					"presentation" : 1,
					"textcolor" : [ 1.0, 1.0, 1.0, 1.0 ],
					"id" : "obj-32",
					"fontname" : "Arial",
					"numinlets" : 1,
					"fontface" : 1,
					"presentation_rect" : [ 0.0, 0.0, 160.0, 20.0 ],
					"fontsize" : 12.0,
					"numoutlets" : 0
				}

			}
, 			{
				"box" : 				{
					"maxclass" : "comment",
					"text" : "Progression",
					"linecount" : 2,
					"frgb" : [ 0.866667, 0.866667, 0.866667, 1.0 ],
					"patching_rect" : [ 48.0, 72.0, 60.0, 34.0 ],
					"presentation" : 1,
					"textcolor" : [ 0.866667, 0.866667, 0.866667, 1.0 ],
					"id" : "obj-30",
					"fontname" : "Arial",
					"numinlets" : 1,
					"presentation_rect" : [ 10.0, 40.0, 100.0, 20.0 ],
					"fontsize" : 12.0,
					"numoutlets" : 0
				}

			}
, 			{
				"box" : 				{
					"maxclass" : "outlet",
					"patching_rect" : [ 280.0, 650.0, 25.0, 25.0 ],
					"id" : "obj-27",
					"numinlets" : 1,
					"numoutlets" : 0,
					"comment" : "harmony function"
				}

			}
, 			{
				"box" : 				{
					"maxclass" : "button",
					"bgcolor" : [ 0.0, 0.0, 0.0, 1.0 ],
					"patching_rect" : [ 179.0, 595.0, 20.0, 20.0 ],
					"outlettype" : [ "bang" ],
					"presentation" : 1,
					"id" : "obj-26",
					"fgcolor" : [ 0.533333, 0.533333, 0.533333, 1.0 ],
					"outlinecolor" : [ 0.32549, 0.290196, 0.290196, 1.0 ],
					"numinlets" : 1,
					"presentation_rect" : [ 110.0, 80.0, 20.0, 20.0 ],
					"blinkcolor" : [ 1.0, 0.0, 0.0, 1.0 ],
					"numoutlets" : 1
				}

			}
, 			{
				"box" : 				{
					"maxclass" : "panel",
					"bgcolor" : [ 1.0, 1.0, 1.0, 1.0 ],
					"mode" : 1,
					"angle" : -90.0,
					"patching_rect" : [ 75.0, 211.0, 160.0, 30.0 ],
					"border" : 1,
					"presentation" : 1,
					"rounded" : 0,
					"grad1" : [ 0.329412, 0.34902, 0.4, 1.0 ],
					"id" : "obj-55",
					"grad2" : [ 0.176471, 0.188235, 0.219608, 1.0 ],
					"numinlets" : 1,
					"presentation_rect" : [ 0.0, 0.0, 200.0, 110.0 ],
					"numoutlets" : 0
				}

			}
 ],
		"lines" : [ 			{
				"patchline" : 				{
					"source" : [ "obj-4", 0 ],
					"destination" : [ "obj-5", 0 ],
					"hidden" : 0,
					"midpoints" : [  ]
				}

			}
, 			{
				"patchline" : 				{
					"source" : [ "obj-57", 0 ],
					"destination" : [ "obj-4", 0 ],
					"hidden" : 0,
					"midpoints" : [  ]
				}

			}
, 			{
				"patchline" : 				{
					"source" : [ "obj-56", 0 ],
					"destination" : [ "obj-4", 0 ],
					"hidden" : 0,
					"midpoints" : [  ]
				}

			}
, 			{
				"patchline" : 				{
					"source" : [ "obj-52", 0 ],
					"destination" : [ "obj-4", 0 ],
					"hidden" : 0,
					"midpoints" : [  ]
				}

			}
, 			{
				"patchline" : 				{
					"source" : [ "obj-51", 0 ],
					"destination" : [ "obj-4", 0 ],
					"hidden" : 0,
					"midpoints" : [  ]
				}

			}
, 			{
				"patchline" : 				{
					"source" : [ "obj-49", 0 ],
					"destination" : [ "obj-4", 0 ],
					"hidden" : 0,
					"midpoints" : [  ]
				}

			}
, 			{
				"patchline" : 				{
					"source" : [ "obj-25", 0 ],
					"destination" : [ "obj-4", 0 ],
					"hidden" : 0,
					"midpoints" : [  ]
				}

			}
, 			{
				"patchline" : 				{
					"source" : [ "obj-42", 0 ],
					"destination" : [ "obj-70", 0 ],
					"hidden" : 0,
					"midpoints" : [  ]
				}

			}
, 			{
				"patchline" : 				{
					"source" : [ "obj-43", 1 ],
					"destination" : [ "obj-42", 0 ],
					"hidden" : 0,
					"midpoints" : [  ]
				}

			}
, 			{
				"patchline" : 				{
					"source" : [ "obj-44", 8 ],
					"destination" : [ "obj-14", 0 ],
					"hidden" : 0,
					"midpoints" : [  ]
				}

			}
, 			{
				"patchline" : 				{
					"source" : [ "obj-65", 0 ],
					"destination" : [ "obj-44", 0 ],
					"hidden" : 0,
					"midpoints" : [ 803.5, 488.0, 13.5, 488.0, 13.5, 433.0, 29.5, 433.0 ]
				}

			}
, 			{
				"patchline" : 				{
					"source" : [ "obj-44", 6 ],
					"destination" : [ "obj-23", 0 ],
					"hidden" : 0,
					"midpoints" : [  ]
				}

			}
, 			{
				"patchline" : 				{
					"source" : [ "obj-44", 5 ],
					"destination" : [ "obj-18", 0 ],
					"hidden" : 0,
					"midpoints" : [  ]
				}

			}
, 			{
				"patchline" : 				{
					"source" : [ "obj-44", 4 ],
					"destination" : [ "obj-17", 0 ],
					"hidden" : 0,
					"midpoints" : [  ]
				}

			}
, 			{
				"patchline" : 				{
					"source" : [ "obj-44", 3 ],
					"destination" : [ "obj-31", 0 ],
					"hidden" : 0,
					"midpoints" : [  ]
				}

			}
, 			{
				"patchline" : 				{
					"source" : [ "obj-44", 2 ],
					"destination" : [ "obj-15", 0 ],
					"hidden" : 0,
					"midpoints" : [  ]
				}

			}
, 			{
				"patchline" : 				{
					"source" : [ "obj-44", 1 ],
					"destination" : [ "obj-14", 0 ],
					"hidden" : 0,
					"midpoints" : [  ]
				}

			}
, 			{
				"patchline" : 				{
					"source" : [ "obj-44", 0 ],
					"destination" : [ "obj-9", 0 ],
					"hidden" : 0,
					"midpoints" : [  ]
				}

			}
, 			{
				"patchline" : 				{
					"source" : [ "obj-44", 7 ],
					"destination" : [ "obj-31", 0 ],
					"hidden" : 0,
					"midpoints" : [  ]
				}

			}
, 			{
				"patchline" : 				{
					"source" : [ "obj-69", 0 ],
					"destination" : [ "obj-68", 0 ],
					"hidden" : 0,
					"midpoints" : [  ]
				}

			}
, 			{
				"patchline" : 				{
					"source" : [ "obj-68", 0 ],
					"destination" : [ "obj-74", 0 ],
					"hidden" : 0,
					"midpoints" : [  ]
				}

			}
, 			{
				"patchline" : 				{
					"source" : [ "obj-68", 1 ],
					"destination" : [ "obj-74", 0 ],
					"hidden" : 0,
					"midpoints" : [  ]
				}

			}
, 			{
				"patchline" : 				{
					"source" : [ "obj-86", 0 ],
					"destination" : [ "obj-79", 0 ],
					"hidden" : 0,
					"midpoints" : [  ]
				}

			}
, 			{
				"patchline" : 				{
					"source" : [ "obj-75", 2 ],
					"destination" : [ "obj-86", 0 ],
					"hidden" : 0,
					"midpoints" : [  ]
				}

			}
, 			{
				"patchline" : 				{
					"source" : [ "obj-85", 0 ],
					"destination" : [ "obj-79", 0 ],
					"hidden" : 0,
					"midpoints" : [  ]
				}

			}
, 			{
				"patchline" : 				{
					"source" : [ "obj-75", 1 ],
					"destination" : [ "obj-85", 0 ],
					"hidden" : 0,
					"midpoints" : [  ]
				}

			}
, 			{
				"patchline" : 				{
					"source" : [ "obj-84", 0 ],
					"destination" : [ "obj-79", 0 ],
					"hidden" : 0,
					"midpoints" : [  ]
				}

			}
, 			{
				"patchline" : 				{
					"source" : [ "obj-75", 0 ],
					"destination" : [ "obj-84", 0 ],
					"hidden" : 0,
					"midpoints" : [  ]
				}

			}
, 			{
				"patchline" : 				{
					"source" : [ "obj-39", 2 ],
					"destination" : [ "obj-78", 0 ],
					"hidden" : 0,
					"midpoints" : [  ]
				}

			}
, 			{
				"patchline" : 				{
					"source" : [ "obj-38", 0 ],
					"destination" : [ "obj-39", 0 ],
					"hidden" : 0,
					"midpoints" : [  ]
				}

			}
, 			{
				"patchline" : 				{
					"source" : [ "obj-39", 0 ],
					"destination" : [ "obj-43", 0 ],
					"hidden" : 0,
					"midpoints" : [ 643.5, 297.5, 803.5, 297.5 ]
				}

			}
, 			{
				"patchline" : 				{
					"source" : [ "obj-54", 0 ],
					"destination" : [ "obj-78", 0 ],
					"hidden" : 0,
					"midpoints" : [  ]
				}

			}
, 			{
				"patchline" : 				{
					"source" : [ "obj-74", 0 ],
					"destination" : [ "obj-75", 0 ],
					"hidden" : 0,
					"midpoints" : [  ]
				}

			}
, 			{
				"patchline" : 				{
					"source" : [ "obj-72", 1 ],
					"destination" : [ "obj-74", 2 ],
					"hidden" : 0,
					"midpoints" : [  ]
				}

			}
, 			{
				"patchline" : 				{
					"source" : [ "obj-71", 0 ],
					"destination" : [ "obj-72", 0 ],
					"hidden" : 0,
					"midpoints" : [  ]
				}

			}
, 			{
				"patchline" : 				{
					"source" : [ "obj-72", 0 ],
					"destination" : [ "obj-69", 0 ],
					"hidden" : 0,
					"midpoints" : [  ]
				}

			}
, 			{
				"patchline" : 				{
					"source" : [ "obj-73", 0 ],
					"destination" : [ "obj-69", 0 ],
					"hidden" : 0,
					"midpoints" : [ 1049.5, 474.5, 969.5, 474.5 ]
				}

			}
, 			{
				"patchline" : 				{
					"source" : [ "obj-70", 1 ],
					"destination" : [ "obj-71", 0 ],
					"hidden" : 0,
					"midpoints" : [  ]
				}

			}
, 			{
				"patchline" : 				{
					"source" : [ "obj-71", 1 ],
					"destination" : [ "obj-73", 0 ],
					"hidden" : 0,
					"midpoints" : [ 986.5, 444.5, 1049.5, 444.5 ]
				}

			}
, 			{
				"patchline" : 				{
					"source" : [ "obj-65", 2 ],
					"destination" : [ "obj-69", 1 ],
					"hidden" : 0,
					"midpoints" : [ 830.5, 472.0, 1004.5, 472.0 ]
				}

			}
, 			{
				"patchline" : 				{
					"source" : [ "obj-65", 1 ],
					"destination" : [ "obj-47", 0 ],
					"hidden" : 0,
					"midpoints" : [ 817.0, 452.0, 779.25, 452.0, 779.25, 373.0, 643.5, 373.0 ]
				}

			}
, 			{
				"patchline" : 				{
					"source" : [ "obj-46", 0 ],
					"destination" : [ "obj-65", 0 ],
					"hidden" : 0,
					"midpoints" : [  ]
				}

			}
, 			{
				"patchline" : 				{
					"source" : [ "obj-47", 0 ],
					"destination" : [ "obj-53", 0 ],
					"hidden" : 0,
					"midpoints" : [  ]
				}

			}
, 			{
				"patchline" : 				{
					"source" : [ "obj-53", 0 ],
					"destination" : [ "obj-54", 0 ],
					"hidden" : 0,
					"midpoints" : [  ]
				}

			}
, 			{
				"patchline" : 				{
					"source" : [ "obj-48", 0 ],
					"destination" : [ "obj-53", 1 ],
					"hidden" : 0,
					"midpoints" : [  ]
				}

			}
, 			{
				"patchline" : 				{
					"source" : [ "obj-43", 2 ],
					"destination" : [ "obj-47", 2 ],
					"hidden" : 0,
					"midpoints" : [ 843.5, 326.5, 677.5, 326.5 ]
				}

			}
, 			{
				"patchline" : 				{
					"source" : [ "obj-43", 0 ],
					"destination" : [ "obj-45", 0 ],
					"hidden" : 0,
					"midpoints" : [  ]
				}

			}
, 			{
				"patchline" : 				{
					"source" : [ "obj-48", 0 ],
					"destination" : [ "obj-47", 4 ],
					"hidden" : 0,
					"midpoints" : [  ]
				}

			}
, 			{
				"patchline" : 				{
					"source" : [ "obj-36", 1 ],
					"destination" : [ "obj-45", 0 ],
					"hidden" : 0,
					"midpoints" : [  ]
				}

			}
, 			{
				"patchline" : 				{
					"source" : [ "obj-46", 1 ],
					"destination" : [ "obj-45", 1 ],
					"hidden" : 0,
					"midpoints" : [ 841.5, 429.0, 895.5, 429.0, 895.5, 360.0, 864.5, 360.0 ]
				}

			}
, 			{
				"patchline" : 				{
					"source" : [ "obj-45", 0 ],
					"destination" : [ "obj-46", 0 ],
					"hidden" : 0,
					"midpoints" : [  ]
				}

			}
, 			{
				"patchline" : 				{
					"source" : [ "obj-59", 0 ],
					"destination" : [ "obj-36", 1 ],
					"hidden" : 0,
					"midpoints" : [  ]
				}

			}
, 			{
				"patchline" : 				{
					"source" : [ "obj-40", 0 ],
					"destination" : [ "obj-90", 0 ],
					"hidden" : 0,
					"midpoints" : [ 683.5, 304.0, 29.5, 304.0 ]
				}

			}
, 			{
				"patchline" : 				{
					"source" : [ "obj-38", 1 ],
					"destination" : [ "obj-40", 0 ],
					"hidden" : 0,
					"midpoints" : [  ]
				}

			}
, 			{
				"patchline" : 				{
					"source" : [ "obj-37", 0 ],
					"destination" : [ "obj-38", 0 ],
					"hidden" : 0,
					"midpoints" : [  ]
				}

			}
, 			{
				"patchline" : 				{
					"source" : [ "obj-36", 0 ],
					"destination" : [ "obj-37", 0 ],
					"hidden" : 0,
					"midpoints" : [  ]
				}

			}
, 			{
				"patchline" : 				{
					"source" : [ "obj-90", 0 ],
					"destination" : [ "obj-61", 0 ],
					"hidden" : 0,
					"midpoints" : [  ]
				}

			}
, 			{
				"patchline" : 				{
					"source" : [ "obj-80", 1 ],
					"destination" : [ "obj-60", 0 ],
					"hidden" : 0,
					"midpoints" : [  ]
				}

			}
, 			{
				"patchline" : 				{
					"source" : [ "obj-80", 0 ],
					"destination" : [ "obj-57", 0 ],
					"hidden" : 0,
					"midpoints" : [  ]
				}

			}
, 			{
				"patchline" : 				{
					"source" : [ "obj-80", 0 ],
					"destination" : [ "obj-23", 0 ],
					"hidden" : 0,
					"midpoints" : [  ]
				}

			}
, 			{
				"patchline" : 				{
					"source" : [ "obj-81", 1 ],
					"destination" : [ "obj-80", 0 ],
					"hidden" : 0,
					"midpoints" : [  ]
				}

			}
, 			{
				"patchline" : 				{
					"source" : [ "obj-81", 0 ],
					"destination" : [ "obj-56", 0 ],
					"hidden" : 0,
					"midpoints" : [  ]
				}

			}
, 			{
				"patchline" : 				{
					"source" : [ "obj-81", 0 ],
					"destination" : [ "obj-18", 0 ],
					"hidden" : 0,
					"midpoints" : [  ]
				}

			}
, 			{
				"patchline" : 				{
					"source" : [ "obj-82", 1 ],
					"destination" : [ "obj-81", 0 ],
					"hidden" : 0,
					"midpoints" : [  ]
				}

			}
, 			{
				"patchline" : 				{
					"source" : [ "obj-82", 0 ],
					"destination" : [ "obj-52", 0 ],
					"hidden" : 0,
					"midpoints" : [  ]
				}

			}
, 			{
				"patchline" : 				{
					"source" : [ "obj-82", 0 ],
					"destination" : [ "obj-17", 0 ],
					"hidden" : 0,
					"midpoints" : [  ]
				}

			}
, 			{
				"patchline" : 				{
					"source" : [ "obj-83", 1 ],
					"destination" : [ "obj-82", 0 ],
					"hidden" : 0,
					"midpoints" : [  ]
				}

			}
, 			{
				"patchline" : 				{
					"source" : [ "obj-83", 0 ],
					"destination" : [ "obj-51", 0 ],
					"hidden" : 0,
					"midpoints" : [  ]
				}

			}
, 			{
				"patchline" : 				{
					"source" : [ "obj-83", 0 ],
					"destination" : [ "obj-31", 0 ],
					"hidden" : 0,
					"midpoints" : [  ]
				}

			}
, 			{
				"patchline" : 				{
					"source" : [ "obj-87", 1 ],
					"destination" : [ "obj-83", 0 ],
					"hidden" : 0,
					"midpoints" : [  ]
				}

			}
, 			{
				"patchline" : 				{
					"source" : [ "obj-87", 0 ],
					"destination" : [ "obj-50", 0 ],
					"hidden" : 0,
					"midpoints" : [  ]
				}

			}
, 			{
				"patchline" : 				{
					"source" : [ "obj-87", 0 ],
					"destination" : [ "obj-15", 0 ],
					"hidden" : 0,
					"midpoints" : [  ]
				}

			}
, 			{
				"patchline" : 				{
					"source" : [ "obj-88", 1 ],
					"destination" : [ "obj-87", 0 ],
					"hidden" : 0,
					"midpoints" : [  ]
				}

			}
, 			{
				"patchline" : 				{
					"source" : [ "obj-88", 0 ],
					"destination" : [ "obj-49", 0 ],
					"hidden" : 0,
					"midpoints" : [  ]
				}

			}
, 			{
				"patchline" : 				{
					"source" : [ "obj-88", 0 ],
					"destination" : [ "obj-14", 0 ],
					"hidden" : 0,
					"midpoints" : [  ]
				}

			}
, 			{
				"patchline" : 				{
					"source" : [ "obj-89", 1 ],
					"destination" : [ "obj-88", 0 ],
					"hidden" : 0,
					"midpoints" : [  ]
				}

			}
, 			{
				"patchline" : 				{
					"source" : [ "obj-61", 0 ],
					"destination" : [ "obj-89", 0 ],
					"hidden" : 0,
					"midpoints" : [  ]
				}

			}
, 			{
				"patchline" : 				{
					"source" : [ "obj-89", 0 ],
					"destination" : [ "obj-25", 0 ],
					"hidden" : 0,
					"midpoints" : [  ]
				}

			}
, 			{
				"patchline" : 				{
					"source" : [ "obj-89", 0 ],
					"destination" : [ "obj-9", 0 ],
					"hidden" : 0,
					"midpoints" : [  ]
				}

			}
, 			{
				"patchline" : 				{
					"source" : [ "obj-41", 1 ],
					"destination" : [ "obj-45", 1 ],
					"hidden" : 0,
					"midpoints" : [  ]
				}

			}
, 			{
				"patchline" : 				{
					"source" : [ "obj-41", 1 ],
					"destination" : [ "obj-48", 0 ],
					"hidden" : 0,
					"midpoints" : [  ]
				}

			}
, 			{
				"patchline" : 				{
					"source" : [ "obj-70", 0 ],
					"destination" : [ "obj-41", 0 ],
					"hidden" : 0,
					"midpoints" : [ 923.5, 377.0, 963.5, 377.0, 963.5, 83.0, 824.5, 83.0 ]
				}

			}
, 			{
				"patchline" : 				{
					"source" : [ "obj-9", 0 ],
					"destination" : [ "obj-58", 0 ],
					"hidden" : 0,
					"midpoints" : [  ]
				}

			}
, 			{
				"patchline" : 				{
					"source" : [ "obj-14", 0 ],
					"destination" : [ "obj-58", 0 ],
					"hidden" : 0,
					"midpoints" : [  ]
				}

			}
, 			{
				"patchline" : 				{
					"source" : [ "obj-15", 0 ],
					"destination" : [ "obj-58", 0 ],
					"hidden" : 0,
					"midpoints" : [  ]
				}

			}
, 			{
				"patchline" : 				{
					"source" : [ "obj-31", 0 ],
					"destination" : [ "obj-58", 0 ],
					"hidden" : 0,
					"midpoints" : [  ]
				}

			}
, 			{
				"patchline" : 				{
					"source" : [ "obj-17", 0 ],
					"destination" : [ "obj-58", 0 ],
					"hidden" : 0,
					"midpoints" : [  ]
				}

			}
, 			{
				"patchline" : 				{
					"source" : [ "obj-18", 0 ],
					"destination" : [ "obj-58", 0 ],
					"hidden" : 0,
					"midpoints" : [  ]
				}

			}
, 			{
				"patchline" : 				{
					"source" : [ "obj-23", 0 ],
					"destination" : [ "obj-58", 0 ],
					"hidden" : 0,
					"midpoints" : [  ]
				}

			}
, 			{
				"patchline" : 				{
					"source" : [ "obj-58", 0 ],
					"destination" : [ "obj-27", 0 ],
					"hidden" : 0,
					"midpoints" : [  ]
				}

			}
, 			{
				"patchline" : 				{
					"source" : [ "obj-26", 0 ],
					"destination" : [ "obj-58", 0 ],
					"hidden" : 0,
					"midpoints" : [  ]
				}

			}
, 			{
				"patchline" : 				{
					"source" : [ "obj-39", 1 ],
					"destination" : [ "obj-96", 0 ],
					"hidden" : 0,
					"midpoints" : [ 657.0, 302.0, 605.0, 302.0, 605.0, 146.0, 643.5, 146.0 ]
				}

			}
, 			{
				"patchline" : 				{
					"source" : [ "obj-54", 0 ],
					"destination" : [ "obj-96", 0 ],
					"hidden" : 0,
					"midpoints" : [ 643.5, 472.0, 616.5, 472.0, 616.5, 148.0, 643.5, 148.0 ]
				}

			}
, 			{
				"patchline" : 				{
					"source" : [ "obj-96", 0 ],
					"destination" : [ "obj-36", 0 ],
					"hidden" : 0,
					"midpoints" : [  ]
				}

			}
, 			{
				"patchline" : 				{
					"source" : [ "obj-96", 1 ],
					"destination" : [ "obj-95", 0 ],
					"hidden" : 0,
					"midpoints" : [  ]
				}

			}
, 			{
				"patchline" : 				{
					"source" : [ "obj-95", 0 ],
					"destination" : [ "obj-93", 0 ],
					"hidden" : 0,
					"midpoints" : [  ]
				}

			}
, 			{
				"patchline" : 				{
					"source" : [ "obj-2", 0 ],
					"destination" : [ "obj-3", 0 ],
					"hidden" : 0,
					"midpoints" : [  ]
				}

			}
, 			{
				"patchline" : 				{
					"source" : [ "obj-3", 0 ],
					"destination" : [ "obj-36", 0 ],
					"hidden" : 0,
					"midpoints" : [ 759.5, 177.0, 643.5, 177.0 ]
				}

			}
 ]
	}

}
